<?xml version="1.0" encoding="UTF-8" standalone="no"?>
<!-- Created with Inkscape (http://www.inkscape.org/) -->

<svg
   width="228.10544mm"
   height="47.667999mm"
   viewBox="0 0 228.10544 47.667999"
   version="1.1"
   id="svg1825"
   inkscape:version="1.2 (dc2aedaf03, 2022-05-15)"
   sodipodi:docname="world-zen.svg"
   xmlns:inkscape="http://www.inkscape.org/namespaces/inkscape"
   xmlns:sodipodi="http://sodipodi.sourceforge.net/DTD/sodipodi-0.dtd"
   xmlns="http://www.w3.org/2000/svg"
   xmlns:svg="http://www.w3.org/2000/svg">
  <sodipodi:namedview
     id="namedview1827"
     pagecolor="#ffffff"
     bordercolor="#666666"
     borderopacity="1.0"
     inkscape:showpageshadow="2"
     inkscape:pageopacity="0.0"
     inkscape:pagecheckerboard="0"
     inkscape:deskcolor="#d1d1d1"
     inkscape:document-units="mm"
     showgrid="false"
     inkscape:zoom="1.1893044"
     inkscape:cx="576.38734"
     inkscape:cy="245.94208"
     inkscape:window-width="1920"
     inkscape:window-height="1057"
     inkscape:window-x="-8"
     inkscape:window-y="-8"
     inkscape:window-maximized="1"
     inkscape:current-layer="layer1" />
  <defs
     id="defs1822" />
  <g
     inkscape:label="Layer 1"
     inkscape:groupmode="layer"
     id="layer1"
     transform="translate(706.79425,123.25354)">
    <text
       xml:space="preserve"
       style="font-style:normal;font-variant:normal;font-weight:normal;font-stretch:normal;font-size:43.1072px;line-height:1.25;font-family:Chiller;-inkscape-font-specification:'Chiller, Normal';font-variant-ligatures:normal;font-variant-position:normal;font-variant-caps:normal;font-variant-numeric:normal;font-variant-alternates:normal;font-variant-east-asian:normal;text-indent:0;text-align:start;text-decoration:none;text-decoration-line:none;text-decoration-style:solid;text-decoration-color:#000000;letter-spacing:0px;word-spacing:0px;text-transform:none;writing-mode:lr-tb;direction:ltr;text-orientation:mixed;dominant-baseline:auto;baseline-shift:baseline;text-anchor:start;white-space:normal;shape-padding:0;shape-margin:0;fill:#1a1a1a;fill-opacity:1;stroke:#ffffff;stroke-width:8.40184;stroke-linecap:butt;stroke-linejoin:miter;stroke-miterlimit:4;stroke-dasharray:none;stroke-dashoffset:0;stroke-opacity:1;stop-color:#000000"
       x="-543.50922"
       y="-87.897781"
       id="text2222"><tspan
         sodipodi:role="line"
         id="tspan2220"
         x="-543.50922"
         y="-87.897781"
         style="fill:#1a1a1a;fill-opacity:1;stroke:#ffffff;stroke-width:8.40184;stroke-dasharray:none;stroke-opacity:1">ZEN</tspan></text>
    <text
       xml:space="preserve"
       style="font-style:normal;font-variant:normal;font-weight:normal;font-stretch:normal;font-size:43.1072px;line-height:1.25;font-family:Chiller;-inkscape-font-specification:'Chiller, Normal';font-variant-ligatures:normal;font-variant-position:normal;font-variant-caps:normal;font-variant-numeric:normal;font-variant-alternates:normal;font-variant-east-asian:normal;text-indent:0;text-align:start;text-decoration:none;text-decoration-line:none;text-decoration-style:solid;text-decoration-color:#000000;letter-spacing:0px;word-spacing:0px;text-transform:none;writing-mode:lr-tb;direction:ltr;text-orientation:mixed;dominant-baseline:auto;baseline-shift:baseline;text-anchor:start;white-space:normal;shape-padding:0;shape-margin:0;fill:#1a1a1a;fill-opacity:1;stroke:#ffffff;stroke-width:8.40184;stroke-linecap:butt;stroke-linejoin:miter;stroke-miterlimit:4;stroke-dasharray:none;stroke-dashoffset:0;stroke-opacity:1;stop-color:#000000"
       x="-703.79309"
       y="-87.879883"
       id="text2216"><tspan
         sodipodi:role="line"
         id="tspan2214"
         x="-703.79309"
         y="-87.879883"
         style="fill:#1a1a1a;fill-opacity:1;stroke:#ffffff;stroke-width:8.40184;stroke-dasharray:none;stroke-opacity:1">WORLD</tspan></text>
    <text
       xml:space="preserve"
       style="font-style:normal;font-variant:normal;font-weight:normal;font-stretch:normal;font-size:43.1072px;line-height:1.25;font-family:Chiller;-inkscape-font-specification:'Chiller, Normal';font-variant-ligatures:normal;font-variant-position:normal;font-variant-caps:normal;font-variant-numeric:normal;font-variant-alternates:normal;font-variant-east-asian:normal;text-indent:0;text-align:start;text-decoration:none;text-decoration-line:none;text-decoration-style:solid;text-decoration-color:#000000;letter-spacing:0px;word-spacing:0px;text-transform:none;writing-mode:lr-tb;direction:ltr;text-orientation:mixed;dominant-baseline:auto;baseline-shift:baseline;text-anchor:start;white-space:normal;shape-padding:0;shape-margin:0;fill:#800000;fill-opacity:1;stroke:#800000;stroke-width:1.07795;stroke-linecap:round;stroke-linejoin:round;stroke-miterlimit:4;stroke-dasharray:none;stroke-dashoffset:0;stroke-opacity:1;paint-order:markers stroke fill;stop-color:#000000"
       x="-543.50922"
       y="-87.897781"
       id="text2210"><tspan
         sodipodi:role="line"
         id="tspan2208"
         x="-543.50922"
         y="-87.897781"
         style="fill:#800000;fill-opacity:1;stroke:#800000;stroke-width:1.07795;stroke-linecap:round;stroke-linejoin:round;stroke-dasharray:none;stroke-opacity:1;paint-order:markers stroke fill">ZEN</tspan></text>
    <text
       xml:space="preserve"
       style="font-style:normal;font-variant:normal;font-weight:normal;font-stretch:normal;font-size:43.1072px;line-height:1.25;font-family:Chiller;-inkscape-font-specification:'Chiller, Normal';font-variant-ligatures:normal;font-variant-position:normal;font-variant-caps:normal;font-variant-numeric:normal;font-variant-alternates:normal;font-variant-east-asian:normal;text-indent:0;text-align:start;text-decoration:none;text-decoration-line:none;text-decoration-style:solid;text-decoration-color:#000000;letter-spacing:0px;word-spacing:0px;text-transform:none;writing-mode:lr-tb;direction:ltr;text-orientation:mixed;dominant-baseline:auto;baseline-shift:baseline;text-anchor:start;white-space:normal;shape-padding:0;shape-margin:0;fill:#800000;fill-opacity:1;stroke:#800000;stroke-width:1.07795;stroke-linecap:round;stroke-linejoin:round;stroke-miterlimit:4;stroke-dasharray:none;stroke-dashoffset:0;stroke-opacity:1;paint-order:markers stroke fill;stop-color:#000000"
       x="-703.79309"
       y="-87.879883"
       id="text2204"><tspan
         sodipodi:role="line"
         id="tspan2202"
         x="-703.79309"
         y="-87.879883"
         style="fill:#800000;fill-opacity:1;stroke:#800000;stroke-width:1.07795;stroke-linecap:round;stroke-linejoin:round;stroke-dasharray:none;stroke-opacity:1;paint-order:markers stroke fill"><tspan
           style="fill:#000000;stroke:#000000;stroke-width:1.07795;stroke-linecap:round;stroke-linejoin:round;stroke-dasharray:none;paint-order:markers stroke fill"
           id="tspan2200">WORLD</tspan></tspan></text>
    <g
       id="g5136"
       transform="matrix(0.84018338,0,0,0.84018338,-1734.8705,-650.0207)">
      <g
         id="g5114"
         transform="matrix(0.77534952,0,0,0.77534952,1173.8138,498.71575)"
         style="fill:#ffffff;stroke:#ffffff;stroke-width:10;stroke-dasharray:none">
        <path
           sodipodi:nodetypes="cccccccccccccccccccccccccccccccccccccccccc"
           inkscape:connector-curvature="0"
           id="path5096"
           d="m 268.58717,231.657 -0.4459,0.76446 c 1.48941,2.71049 3.97974,0.0156 6.27489,-1.6245 0.48485,-4.85208 0.99854,-9.44481 1.36964,-15.32092 2.24627,0.0909 4.4471,0.1364 6.27489,-0.19113 l 0.82817,0.50964 c 0.60519,-0.0426 1.21038,0.10334 1.81558,-0.28666 0.80686,-0.97987 1.80698,-1.90449 2.22968,-2.99411 l -0.85424,-0.89412 -1.43021,-0.0225 -0.0338,-1.72302 -0.63067,-0.43917 -0.45044,0.0339 -0.0788,0.37164 c -2.16533,0.24387 -4.56656,-0.54433 -6.29516,1.61038 l -1.11487,-0.0789 -0.045,-3.61207 0.82021,-0.82021 h 5.70156 l 0.53352,-0.53351 v -0.9317 c 2.93582,-3.24847 4.42122,-7.07711 6.22334,-10.77911 2.61255,0.0268 2.79719,-2.07068 3.61458,-3.61459 l -3.98506,-4.54248 -5.1919,0.0637 c 2.85075,-3.65979 6.24153,-7.03782 11.03679,-9.68309 5.78128,-0.92794 4.64839,-2.98389 4.64839,-4.48916 0,-1.81112 -2.35246,-2.26672 -3.04061,-1.86942 l -3.67126,3.01808 -2.20721,-0.20269 c -5.30169,1.39893 -5.98112,5.85184 -8.96395,8.78291 l -2.64373,4.77783 c -1.52593,-0.39578 -2.37051,0.11251 -3.02595,0.38222 l -10.92995,5.67453 -1.68359,11.01606 c -0.27897,2.09661 0.64215,3.28078 6.08382,3.28078 l 2.10225,0.0637 -0.38223,3.69488 c -3.4055,-0.10316 -6.84165,-0.60439 -10.19275,0 -3.17011,0.51598 -2.87109,3.53425 -1.08297,4.01338 3.18581,0.70163 5.79745,0.54194 8.66384,0.76445 3.40427,0.0897 0.10611,10.5536 0.15908,15.83039 z"
           style="display:inline;fill:#ffffff;stroke:#ffffff;stroke-width:10;stroke-linecap:round;stroke-linejoin:round;stroke-dasharray:none;stroke-opacity:1" />
        <path
           sodipodi:nodetypes="cccc"
           inkscape:connector-curvature="0"
           id="path5098"
           d="m 276.02337,202.2726 c 0.52812,-1.68537 0.8571,-3.45654 5.5857,-3.33338 l -0.81084,3.17573 z"
           style="display:inline;fill:#ffffff;stroke:#ffffff;stroke-width:10;stroke-linecap:round;stroke-linejoin:round;stroke-dasharray:none;stroke-opacity:1" />
        <path
           sodipodi:nodetypes="cccccc"
           inkscape:connector-curvature="0"
           id="path5100"
           d="m 268.68087,199.2095 v 3.24329 h 3.85143 v -1.50903 c 0.65701,-0.77382 1.06382,-1.51313 0,-2.04958 z"
           style="display:inline;fill:#ffffff;stroke:#ffffff;stroke-width:10;stroke-linecap:round;stroke-linejoin:round;stroke-dasharray:none;stroke-opacity:1" />
        <path
           sodipodi:nodetypes="ccccc"
           inkscape:connector-curvature="0"
           id="path5102"
           d="m 270.8059,194.45191 0.99836,-3.13585 c 1.33231,-2.8e-4 2.48555,-0.29902 3.99747,0 -0.007,1.2042 -0.34723,2.19851 -0.8316,3.10353 z"
           style="display:inline;fill:#ffffff;stroke:#ffffff;stroke-width:10;stroke-linecap:round;stroke-linejoin:round;stroke-dasharray:none;stroke-opacity:1" />
        <path
           sodipodi:nodetypes="ccccc"
           inkscape:connector-curvature="0"
           id="path5104"
           d="m 278.73215,194.2465 1.06702,-2.88265 5.0327,-0.0796 -1.49182,2.87336 z"
           style="display:inline;fill:#ffffff;stroke:#ffffff;stroke-width:10;stroke-linecap:round;stroke-linejoin:round;stroke-dasharray:none;stroke-opacity:1" />
        <path
           sodipodi:nodetypes="ccssccsccccccccccccccc"
           inkscape:connector-curvature="0"
           id="path5106"
           d="m 254.24365,212.92599 c 1.29357,-7.76712 -0.001,-16.81739 10.67603,-19.93266 l 10.92994,-5.67455 c 1.2603,-0.65431 -0.53521,-3.09858 -2.64163,-2.14111 l -15.85615,7.20737 1.89191,-4.27937 c 2.26628,-0.89397 6.33069,-1.85234 2.44569,-3.62801 -4.56996,-2.08867 -4.31755,-1.86834 -8.27912,0.51982 -3.23602,0.43962 -8.53308,1.23264 -11.39664,6.14877 -1.77663,1.02574 -1.04061,2.65015 -0.58558,2.38746 3.8754,-1.96307 6.00986,-4.24006 12.18493,-5.78841 1.70251,-0.45619 1.77978,1.48604 1.19371,2.0721 l -2.63521,1.89194 c -2.95732,-0.19284 -3.01314,2.00373 -4.12171,3.33339 -3.1264,1.75584 -3.96446,3.51848 -5.31541,5.15777 -1.60651,1.60651 0.139,4.7177 2.02708,4.21178 2.01662,-0.65754 3.75186,-1.82063 5.51814,-2.92798 0.0736,3.58202 -0.42329,6.82171 -0.74011,10.16945 l -0.66894,0.63704 c -0.0156,1.26882 -0.1724,2.53756 0.33447,3.80638 1.00603,0.69221 2.04134,0.65252 3.08969,0.28665 1.47342,-0.84806 1.63164,-2.03122 1.94891,-3.45783 z"
           style="display:inline;fill:#ffffff;stroke:#ffffff;stroke-width:10;stroke-linecap:round;stroke-linejoin:round;stroke-dasharray:none;stroke-opacity:1" />
        <path
           sodipodi:nodetypes="ccssc"
           inkscape:connector-curvature="0"
           id="path5108"
           d="m 253.96699,174.13177 c -5.89218,-0.93504 0.27718,4.5539 1.27408,5.63785 2.81182,-0.33984 3.85493,-1.5516 4.84151,-2.70746 1.54373,-1.80856 4.84376,-6.38223 -1.87925,-5.4786 -1.6317,0.21931 -3.01268,1.3847 -4.23634,2.54821 z"
           style="display:inline;fill:#ffffff;stroke:#ffffff;stroke-width:10;stroke-linecap:round;stroke-linejoin:round;stroke-dasharray:none;stroke-opacity:1" />
        <path
           sodipodi:nodetypes="cccccccc"
           inkscape:connector-curvature="0"
           id="path5110"
           d="m 268.74644,173.3036 1.33778,1.30595 1.0193,-0.0954 c 1.43951,1.40319 2.59092,2.23022 3.69485,2.96226 l -0.0956,4.90524 c -1.73299,0.0318 -3.30587,-0.65695 -4.36379,-3.66301 -1.35801,-1.4289 -2.2328,-2.76117 -3.18524,-4.10894 z"
           style="display:inline;fill:#ffffff;stroke:#ffffff;stroke-width:10;stroke-linecap:round;stroke-linejoin:round;stroke-dasharray:none;stroke-opacity:1" />
        <path
           sodipodi:nodetypes="cccccc"
           inkscape:connector-curvature="0"
           id="path5112"
           d="m 280.89808,173.76545 c 3.92929,-0.76444 3.11367,0.82327 2.18191,2.46854 0.21436,0.63929 -0.0841,0.95235 -0.31852,1.30598 -2.06776,-0.31161 -4.54493,-0.05 -4.3797,-3.48782 l 1.49706,-0.97151 z"
           style="display:inline;fill:#ffffff;stroke:#ffffff;stroke-width:10;stroke-linecap:round;stroke-linejoin:round;stroke-dasharray:none;stroke-opacity:1" />
      </g>
      <g
         id="g5134"
         transform="matrix(0.77534952,0,0,0.77534952,1173.8138,498.71575)">
        <path
           sodipodi:nodetypes="cccccccccccccccccccccccccccccccccccccccccc"
           inkscape:connector-curvature="0"
           id="path5116"
           d="m 268.58717,231.657 -0.4459,0.76446 c 1.48941,2.71049 3.97974,0.0156 6.27489,-1.6245 0.48485,-4.85208 0.99854,-9.44481 1.36964,-15.32092 2.24627,0.0909 4.4471,0.1364 6.27489,-0.19113 l 0.82817,0.50964 c 0.60519,-0.0426 1.21038,0.10334 1.81558,-0.28666 0.80686,-0.97987 1.80698,-1.90449 2.22968,-2.99411 l -0.85424,-0.89412 -1.43021,-0.0225 -0.0338,-1.72302 -0.63067,-0.43917 -0.45044,0.0339 -0.0788,0.37164 c -2.16533,0.24387 -4.56656,-0.54433 -6.29516,1.61038 l -1.11487,-0.0789 -0.045,-3.61207 0.82021,-0.82021 h 5.70156 l 0.53352,-0.53351 v -0.9317 c 2.93582,-3.24847 4.42122,-7.07711 6.22334,-10.77911 2.61255,0.0268 2.79719,-2.07068 3.61458,-3.61459 l -3.98506,-4.54248 -5.1919,0.0637 c 2.85075,-3.65979 6.24153,-7.03782 11.03679,-9.68309 5.78128,-0.92794 4.64839,-2.98389 4.64839,-4.48916 0,-1.81112 -2.35246,-2.26672 -3.04061,-1.86942 l -3.67126,3.01808 -2.20721,-0.20269 c -5.30169,1.39893 -5.98112,5.85184 -8.96395,8.78291 l -2.64373,4.77783 c -1.52593,-0.39578 -2.37051,0.11251 -3.02595,0.38222 l -10.92995,5.67453 -1.68359,11.01606 c -0.27897,2.09661 0.64215,3.28078 6.08382,3.28078 l 2.10225,0.0637 -0.38223,3.69488 c -3.4055,-0.10316 -6.84165,-0.60439 -10.19275,0 -3.17011,0.51598 -2.87109,3.53425 -1.08297,4.01338 3.18581,0.70163 5.79745,0.54194 8.66384,0.76445 3.40427,0.0897 0.10611,10.5536 0.15908,15.83039 z"
           style="display:inline;fill:#000000;stroke:#000000;stroke-width:0.391255px;stroke-linecap:round;stroke-linejoin:round;stroke-opacity:1" />
        <path
           sodipodi:nodetypes="cccc"
           inkscape:connector-curvature="0"
           id="path5118"
           d="m 276.02337,202.2726 c 0.52812,-1.68537 0.8571,-3.45654 5.5857,-3.33338 l -0.81084,3.17573 z"
           style="display:inline;fill:#ffffff;stroke:#ffffff;stroke-width:0.391255px;stroke-linecap:round;stroke-linejoin:round;stroke-opacity:1" />
        <path
           sodipodi:nodetypes="cccccc"
           inkscape:connector-curvature="0"
           id="path5120"
           d="m 268.68087,199.2095 v 3.24329 h 3.85143 v -1.50903 c 0.65701,-0.77382 1.06382,-1.51313 0,-2.04958 z"
           style="display:inline;fill:#ffffff;stroke:#ffffff;stroke-width:0.391255px;stroke-linecap:round;stroke-linejoin:round;stroke-opacity:1" />
        <path
           sodipodi:nodetypes="ccccc"
           inkscape:connector-curvature="0"
           id="path5122"
           d="m 270.8059,194.45191 0.99836,-3.13585 c 1.33231,-2.8e-4 2.48555,-0.29902 3.99747,0 -0.007,1.2042 -0.34723,2.19851 -0.8316,3.10353 z"
           style="display:inline;fill:#ffffff;stroke:#ffffff;stroke-width:0.391255px;stroke-linecap:round;stroke-linejoin:round;stroke-opacity:1" />
        <path
           sodipodi:nodetypes="ccccc"
           inkscape:connector-curvature="0"
           id="path5124"
           d="m 278.73215,194.2465 1.06702,-2.88265 5.0327,-0.0796 -1.49182,2.87336 z"
           style="display:inline;fill:#ffffff;stroke:#ffffff;stroke-width:0.391255px;stroke-linecap:round;stroke-linejoin:round;stroke-opacity:1" />
        <path
           sodipodi:nodetypes="ccssccsccccccccccccccc"
           inkscape:connector-curvature="0"
           id="path5126"
           d="m 254.24365,212.92599 c 1.29357,-7.76712 -0.001,-16.81739 10.67603,-19.93266 l 10.92994,-5.67455 c 1.2603,-0.65431 -0.53521,-3.09858 -2.64163,-2.14111 l -15.85615,7.20737 1.89191,-4.27937 c 2.26628,-0.89397 6.33069,-1.85234 2.44569,-3.62801 -4.56996,-2.08867 -4.31755,-1.86834 -8.27912,0.51982 -3.23602,0.43962 -8.53308,1.23264 -11.39664,6.14877 -1.77663,1.02574 -1.04061,2.65015 -0.58558,2.38746 3.8754,-1.96307 6.00986,-4.24006 12.18493,-5.78841 1.70251,-0.45619 1.77978,1.48604 1.19371,2.0721 l -2.63521,1.89194 c -2.95732,-0.19284 -3.01314,2.00373 -4.12171,3.33339 -3.1264,1.75584 -3.96446,3.51848 -5.31541,5.15777 -1.60651,1.60651 0.139,4.7177 2.02708,4.21178 2.01662,-0.65754 3.75186,-1.82063 5.51814,-2.92798 0.0736,3.58202 -0.42329,6.82171 -0.74011,10.16945 l -0.66894,0.63704 c -0.0156,1.26882 -0.1724,2.53756 0.33447,3.80638 1.00603,0.69221 2.04134,0.65252 3.08969,0.28665 1.47342,-0.84806 1.63164,-2.03122 1.94891,-3.45783 z"
           style="display:inline;fill:#800000;stroke:#800000;stroke-width:0.391255px;stroke-linecap:round;stroke-linejoin:round;stroke-opacity:1" />
        <path
           sodipodi:nodetypes="ccssc"
           inkscape:connector-curvature="0"
           id="path5128"
           d="m 253.96699,174.13177 c -5.89218,-0.93504 0.27718,4.5539 1.27408,5.63785 2.81182,-0.33984 3.85493,-1.5516 4.84151,-2.70746 1.54373,-1.80856 4.84376,-6.38223 -1.87925,-5.4786 -1.6317,0.21931 -3.01268,1.3847 -4.23634,2.54821 z"
           style="display:inline;fill:#800000;stroke:#800000;stroke-width:0.391255px;stroke-linecap:round;stroke-linejoin:round;stroke-opacity:1" />
        <path
           sodipodi:nodetypes="cccccccc"
           inkscape:connector-curvature="0"
           id="path5130"
           d="m 268.74644,173.3036 1.33778,1.30595 1.0193,-0.0954 c 1.43951,1.40319 2.59092,2.23022 3.69485,2.96226 l -0.0956,4.90524 c -1.73299,0.0318 -3.30587,-0.65695 -4.36379,-3.66301 -1.35801,-1.4289 -2.2328,-2.76117 -3.18524,-4.10894 z"
           style="display:inline;fill:#800000;stroke:#800000;stroke-width:0.391255px;stroke-linecap:round;stroke-linejoin:round;stroke-opacity:1" />
        <path
           sodipodi:nodetypes="cccccc"
           inkscape:connector-curvature="0"
           id="path5132"
           d="m 280.89808,173.76545 c 3.92929,-0.76444 3.11367,0.82327 2.18191,2.46854 0.21436,0.63929 -0.0841,0.95235 -0.31852,1.30598 -2.06776,-0.31161 -4.54493,-0.05 -4.3797,-3.48782 l 1.49706,-0.97151 z"
           style="display:inline;fill:#800000;stroke:#800000;stroke-width:0.391255px;stroke-linecap:round;stroke-linejoin:round;stroke-opacity:1" />
      </g>
    </g>
  </g>
</svg>
