<?xml version="1.0" encoding="UTF-8" standalone="no"?>
<!-- Created with Inkscape (http://www.inkscape.org/) -->

<svg
   width="228.10544mm"
   height="47.667999mm"
   viewBox="0 0 228.10544 47.667999"
   version="1.1"
   id="svg1825"
   inkscape:version="1.2 (dc2aedaf03, 2022-05-15)"
   sodipodi:docname="worldzen.svg"
   xmlns:inkscape="http://www.inkscape.org/namespaces/inkscape"
   xmlns:sodipodi="http://sodipodi.sourceforge.net/DTD/sodipodi-0.dtd"
   xmlns="http://www.w3.org/2000/svg"
   xmlns:svg="http://www.w3.org/2000/svg">
  <sodipodi:namedview
     id="namedview1827"
     pagecolor="#ffffff"
     bordercolor="#666666"
     borderopacity="1.0"
     inkscape:showpageshadow="2"
     inkscape:pageopacity="0.0"
     inkscape:pagecheckerboard="0"
     inkscape:deskcolor="#d1d1d1"
     inkscape:document-units="mm"
     showgrid="false"
     inkscape:zoom="1.1893044"
     inkscape:cx="576.38734"
     inkscape:cy="249.30539"
     inkscape:window-width="1920"
     inkscape:window-height="1057"
     inkscape:window-x="-8"
     inkscape:window-y="-8"
     inkscape:window-maximized="1"
     inkscape:current-layer="layer1"
     inkscape:lockguides="true" />
  <defs
     id="defs1822" />
  <g
     inkscape:label="Layer 1"
     inkscape:groupmode="layer"
     id="layer1"
     transform="translate(706.79425,123.25354)">
    <g
       aria-label="ZEN"
       id="text2222"
       style="font-size:43.1072px;line-height:1.25;font-family:Chiller;-inkscape-font-specification:'Chiller, Normal';letter-spacing:0px;word-spacing:0px;baseline-shift:baseline;fill:#1a1a1a;stroke:#ffffff;stroke-width:8.40184;stop-color:#000000">
      <path
         d="m -520.96634,-110.73534 -0.0842,0.58936 -0.42097,0.44202 -0.39992,0.21048 h -0.6525 l -0.50517,-0.21048 -0.6104,-0.35783 -0.50516,-0.0842 -0.6946,-0.21048 -0.77879,0.0421 -0.7367,0.16839 -0.86299,0.0842 h -0.77879 l -0.77879,0.18944 -0.63145,0.21048 -0.94718,0.29468 -0.39992,0.29468 h -0.58936 l -0.82089,0.35782 -0.56831,0.0421 -0.6104,0.33678 -0.50516,0.0842 -0.7788,0.35782 -0.90508,0.12629 -0.86298,0.0421 h -2.02065 l -0.94718,-0.12629 -0.98928,-0.39992 -0.39992,-0.50516 -0.21049,-0.56831 -0.16838,-0.42097 v -0.52621 l 0.12629,-0.37887 0.25258,-0.61041 0.33677,-0.37887 0.48412,-0.27363 0.82089,-0.42097 0.98927,-0.21048 0.90509,0.0842 1.15766,0.0421 0.98928,-0.0421 1.05242,-0.0842 0.63145,0.12629 0.90509,-0.23153 1.03137,-0.0842 0.77879,-0.16839 h 2.37847 l 1.11557,0.0421 1.26291,0.12629 2.27323,0.44202 0.73669,0.16839 0.56831,0.0842 h 0.46307 l 0.52621,0.29468 0.25258,0.44202 z m -1.51549,22.058766 -0.0842,0.357824 -0.58936,0.0421 -1.47339,-0.357824 -0.86298,-0.08419 -0.7367,0.08419 -0.94718,-0.168387 -1.03137,-0.0421 h -0.94718 l -1.19976,0.0421 h -1.26291 l -0.86298,0.08419 h -0.86299 l -0.63145,0.0421 -0.61041,-0.12629 -1.03137,0.08419 -0.94718,0.0421 h -0.6525 l -0.94718,0.168388 -0.6525,0.189436 -0.6946,0.0421 -0.63146,-0.189436 -1.07347,0.147339 h -0.86298 l -0.7367,-0.315727 -0.35782,-0.463065 -0.16839,-0.568308 -0.16839,-0.652502 -0.0842,-0.67355 0.21048,-0.610404 0.39992,-0.442018 0.63146,-0.547259 0.6104,-0.39992 0.98928,-0.378872 0.6525,-0.610405 0.46307,-0.463066 0.86298,-0.568307 0.44202,-0.420969 0.82089,-0.610405 0.29468,-0.526211 0.6104,-0.294678 0.54726,-0.568308 1.22081,-1.115567 0.0421,-0.294678 0.25258,-0.168388 0.29468,-0.39992 0.44201,-0.378872 0.46307,-0.568311 0.39992,-0.42097 0.37887,-0.18943 0.35782,-0.42097 0.63146,-0.48411 0.56831,-0.50517 0.73669,-0.77879 0.82089,-0.90508 0.67355,-0.6525 0.6104,-0.46307 0.33678,-0.56831 0.7367,-0.50516 0.31572,-0.6946 0.42097,-0.6104 0.6525,-0.37887 0.58936,-0.23154 0.48411,-0.54726 0.48412,-0.39992 0.63145,-0.21048 0.56831,0.16839 0.16838,0.44201 -0.16838,0.37888 -0.56831,0.39992 -0.63145,0.16838 -0.56831,0.37888 -0.56831,0.48411 -0.42097,0.37887 -0.16839,0.56831 -0.48411,0.6104 -0.73669,0.79984 -0.67355,0.35783 -0.82089,0.82089 -0.7788,0.63145 -0.44201,0.48411 -1.24186,1.24186 -0.82089,0.61041 -0.7367,0.568304 -0.37887,0.463066 -0.56831,0.357823 -0.29467,0.378872 -0.56831,0.484114 -0.42097,0.54726 -0.56831,0.39992 -0.37887,0.505163 -0.6104,0.526211 -0.7367,0.589356 -0.50516,0.484114 -0.56831,0.610405 -0.77879,0.631453 -0.37887,0.778792 -0.65251,0.442017 -0.33677,0.736695 -0.39992,0.67355 -0.56831,0.526211 -0.21048,0.378872 0.21048,0.27363 0.61041,0.378872 0.6104,0.252581 0.50516,0.08419 0.48412,-0.505163 0.90508,-0.252581 1.15766,-0.231533 0.65251,0.08419 h 2.54686 l 0.86298,-0.08419 1.03138,0.0421 h 0.77879 l 0.94718,0.0421 0.98927,0.147339 h 1.15767 l 0.90508,0.08419 0.82089,0.210484 0.82089,0.08419 0.6946,0.210484 0.73669,0.168388 0.63146,0.27363 0.6104,0.210484 z"
         id="path4535" />
      <path
         d="m -502.63315,-112.65074 -0.0421,0.39992 -0.31572,0.12629 h -0.29468 l -0.61041,-0.25258 -0.54726,-0.27363 h -1.47339 l -0.98927,0.31572 -1.11557,0.21049 -1.3892,0.6946 -0.94718,0.16838 h -0.6104 l -0.58936,0.25258 -1.59968,0.0421 h -1.3471 l -1.41024,0.12629 -1.22081,0.23153 -0.63146,0.21049 -0.39992,0.6525 -0.16838,0.71565 -0.1263,1.09452 -0.0842,1.07347 -0.21048,1.85226 0.0421,0.37887 -0.18943,1.22081 0.18943,0.12629 0.33678,-0.0842 0.52621,-0.21049 0.71565,-0.6525 0.6525,-0.25258 h 1.38919 l 1.81017,0.0421 1.15766,0.0842 0.21049,0.16839 0.35782,0.29468 h 1.07347 l 0.37887,0.25258 0.39992,-0.0421 0.82089,0.27363 0.86299,0.12629 0.0421,0.21048 -0.14734,0.16839 -0.50517,0.35783 h -0.48411 l -0.37887,-0.0842 -1.43129,-0.0421 -1.57864,0.25258 -1.47339,0.16838 -1.3471,0.21049 -1.32605,0.0842 -1.07347,0.39992 -1.03137,-0.73669 -0.14734,1.15766 0.0631,0.82089 0.0842,1.031374 0.25258,1.136615 0.37887,1.241858 0.39992,1.115567 1.19976,1.683875 0.6525,0.736696 0.90509,0.568308 0.90508,0.463065 1.11557,0.568308 1.3471,0.168388 1.41024,0.252581 1.07347,0.252581 0.6946,-0.0421 0.6104,0.189436 1.64178,0.252581 0.33678,0.294679 -0.0842,0.315726 -0.12629,0.378872 -0.48411,0.08419 -1.03137,-0.126291 -1.07348,0.0421 -1.68387,0.08419 -1.15766,-0.08419 -0.86299,-0.294678 -0.39992,0.0421 -0.58936,-0.126291 -1.17871,-0.315726 -0.77879,-0.168388 -0.58936,-0.526211 -0.6525,-0.420969 -0.56831,-0.442017 -0.58935,-0.989276 -0.6525,-1.031374 -0.1263,-0.94718 0.1263,-0.652501 -0.50517,-0.94718 -0.14734,-1.031373 -0.37887,-0.54726 -0.0842,-1.220809 -0.21049,-0.778797 0.12629,-0.79984 -0.23153,-1.17871 0.23153,-0.77879 -0.31572,-0.54726 0.14734,-0.23153 -0.0631,-0.63146 0.23153,-0.69459 -0.12629,-0.6946 0.33678,-0.7367 -0.12629,-0.98927 v -0.7788 l 0.29468,-0.50516 -0.0842,-0.73669 0.16839,-0.42097 -0.0842,-0.7788 -0.37888,-0.44201 -0.77879,-0.7788 -0.0421,-0.42096 0.0421,-0.7367 0.16839,-0.94718 0.29468,-0.6946 0.77879,-0.50516 0.6946,-0.23153 0.52621,-0.21049 0.90508,0.25258 0.98928,0.48412 1.28395,0.0421 1.76807,-0.0421 2.33638,-0.0842 h 1.36815 l 1.07347,0.29468 1.09452,0.0842 0.82089,0.12629 0.75774,0.23153 0.56831,0.16839 h 0.37887 l 0.82089,0.46306 0.6946,0.44202 z m -13.84987,21.658838 -0.0842,0.294678 -0.37887,-0.0421 v -0.357824 l 0.29468,-0.210484 z"
         id="path4537" />
      <path
         d="m -490.61449,-112.86123 -0.50516,0.31573 v -0.56831 l 0.46306,0.0421 z m 7.72477,-3.57823 -0.0421,0.6104 v 0.6946 l -0.25258,0.46307 0.0842,0.35782 -0.16839,0.58936 -0.48411,0.6104 -0.37887,0.56831 -0.18944,1.24186 v 0.77879 l -0.21048,1.07347 0.0421,0.56831 -0.21048,0.94718 -0.0421,0.86298 -0.39992,0.77879 -0.16839,0.98928 -0.0842,0.98928 -1.28395,2.71525 -0.44202,0.33677 -0.12629,0.6525 -0.37887,0.61041 -0.18944,0.989273 -0.21048,0.589357 v 0.820889 l -0.50517,1.3471 -0.35782,0.631453 -0.12629,1.010325 -0.0842,0.799841 -0.21049,0.778792 0.0421,0.652501 -0.12629,0.694599 0.0842,0.378872 -0.35782,0.442017 -0.37887,0.862986 h -0.33678 l -0.44202,-0.08419 -0.16838,-0.610405 -0.82089,-0.442017 -0.29468,-0.757744 -0.18944,-0.652501 -0.46306,-0.778792 v -0.526211 l -0.44202,-0.505163 0.39992,-0.778792 -0.44202,-0.778792 -0.12629,-1.157664 -0.63145,-1.389197 -0.23153,-1.199761 -0.21049,-0.947182 -0.29468,-1.51549 -0.16838,-0.50516 -0.23154,-0.73669 -0.33677,-0.90509 -0.61041,-1.81016 -0.69459,-1.03138 -0.46307,0.86299 -0.16839,0.33678 v 2.42057 l -0.16838,1.15766 0.12629,1.07347 -0.23154,1.26291 -0.21048,1.326048 -0.33678,0.652502 -0.16838,1.07347 -0.18944,1.283955 -0.0842,2.462667 -0.29468,0.610405 0.16839,0.547259 -0.46307,0.610405 -0.77879,0.336775 -0.98928,0.0421 -0.77879,-0.463066 -0.21049,-0.778792 -0.31572,-0.94718 -0.21049,-0.862986 v -0.694598 l 0.56831,-0.862986 0.37887,-0.378872 0.33678,-0.442017 0.39992,-0.905083 0.0421,-1.157664 0.42096,-0.989276 0.14734,-0.905083 0.37888,-0.6946 -0.16839,-2.02065 -0.21049,-0.6525 -0.14734,-1.15766 0.23154,-1.15767 0.29468,-0.77879 0.25258,-0.98928 0.6525,-0.6104 0.29468,-2.54686 0.6104,-0.7788 0.16839,-0.86298 0.6104,-0.75774 0.21049,-0.23154 0.29468,-0.21048 0.10524,-0.52621 0.25258,-0.16839 h 0.37887 l 0.27363,0.31573 0.12629,0.63145 0.25258,1.03137 0.21049,1.22081 0.31572,2.84154 0.16839,1.28396 0.29468,0.77879 0.12629,0.82089 0.0842,0.77879 0.31573,1.15766 0.12629,1.30501 0.54726,0.86298 0.31573,1.28396 0.0842,1.220807 0.29468,1.031373 0.31573,1.199761 0.21048,0.778792 0.16839,0.420969 h 0.33677 l 0.27363,-0.420969 0.50516,-0.442017 0.16839,-0.905083 0.31573,-0.210484 -0.0842,-0.420969 0.29468,-1.031373 -0.12629,-0.694599 0.12629,-0.862988 0.37887,-0.39992 0.39993,-0.63145 0.33677,-0.77879 0.44202,-0.7788 0.42097,-0.48411 v -0.79984 l 0.39992,-0.77879 0.21048,-0.52621 0.29468,-0.94718 0.16839,-0.7788 -0.0842,-1.24185 -0.29468,-0.94718 -0.33677,-0.98928 -0.35782,-0.73669 v -0.86299 l -0.0842,-1.11557 0.44202,-0.48411 v -0.61041 l 0.33677,-0.42097 0.21049,-1.3471 0.31573,-0.79984 0.33677,0.16839 0.7367,-0.27363 0.42096,-0.50516 0.7788,-0.31573 0.52621,-0.16838 0.46306,0.35782 0.27363,0.63145 0.25258,-0.0421 z m -17.36496,27.594499 -0.39992,0.168387 -0.33677,-0.168387 0.12629,-0.442017 0.46306,0.105242 z"
         id="path4539" />
    </g>
    <g
       aria-label="WORLD"
       id="text2216"
       style="font-size:43.1072px;line-height:1.25;font-family:Chiller;-inkscape-font-specification:'Chiller, Normal';letter-spacing:0px;word-spacing:0px;baseline-shift:baseline;fill:#1a1a1a;stroke:#ffffff;stroke-width:8.40184;stop-color:#000000">
      <path
         d="m -679.73473,-114.21148 -0.16838,0.25258 -0.27363,-0.21048 -0.12629,-0.35783 0.35782,-0.25258 0.21048,0.25258 z m 1.41025,0.90508 -0.0421,0.58936 -0.12629,0.48411 v 0.50517 l -0.16839,0.35782 -0.25258,0.61041 -0.23153,0.79984 -0.37887,0.90508 v 0.52621 l -0.37887,1.32605 -0.52621,1.05242 0.12629,0.50517 -0.21049,0.69459 -0.12629,0.6946 -0.21048,0.46307 -0.0632,0.77879 -0.16839,0.94718 v 0.6104 l -0.37887,0.82089 -0.21048,1.115571 -0.0421,0.989277 -0.18944,0.820889 -0.21048,0.778792 -0.33677,0.820889 -0.48412,0.94718 -0.21048,0.820889 -0.29468,0.694598 -0.0842,0.463066 -0.35782,0.252581 -0.42097,0.94718 -0.56831,0.315726 -0.21048,0.54726 -0.44202,0.39992 -0.71564,0.378872 -0.90509,0.0421 -0.82089,-0.168388 -0.44201,-0.420968 -0.25258,-0.442018 -0.48412,-0.420968 -0.42097,-0.736696 -0.5683,-0.778792 -0.46307,-0.862986 -0.44202,-0.652501 -0.16839,-0.989277 -0.6104,-0.989277 -0.12629,-0.778792 -0.37887,-0.547259 v -0.989277 l -0.12629,-0.736695 -0.27363,-0.08419 -0.29468,-0.526209 h -0.42097 l -0.39992,0.484112 -0.33677,0.862986 -0.27363,0.989277 -0.29468,0.715647 -0.42097,1.094519 -0.86299,2.02065 -0.18943,0.694598 -0.33678,0.778792 -0.33677,0.631453 -0.7367,0.652502 -0.35782,0.778792 -0.37887,0.505163 -0.33678,0.484114 -0.31573,0.420968 -0.37887,0.147339 h -0.39992 l -0.33677,-0.442017 -0.0842,-0.610404 -0.0842,-0.67355 0.16839,-0.820889 -0.0842,-0.94718 v -0.694599 l 0.0842,-0.905082 -0.16839,-0.905083 v -0.905083 l -0.0842,-0.862986 -0.21049,-0.905083 v -0.862986 l -0.18943,-0.378872 0.0421,-0.610404 -0.21048,-0.947184 -0.12629,-0.90508 -0.0421,-0.86298 -0.21048,-0.98928 -0.23154,-0.82089 -0.0421,-0.44202 -0.0842,-0.67355 -0.25258,-0.6525 -0.0421,-0.6525 -0.21048,-0.61041 -0.39992,-0.54725 v -0.56831 l 0.0421,-0.37887 0.39992,-0.31573 0.21048,-0.33678 0.44202,-0.12629 0.90508,0.12629 0.25258,0.44202 0.33678,0.50516 0.21048,0.61041 -0.16839,0.63145 -0.16838,0.96823 0.21048,0.75774 0.12629,0.52621 v 0.61041 l 0.0632,0.86298 v 0.82089 l 0.0421,0.63146 v 0.73669 l 0.1263,0.86299 0.0842,1.073469 0.0842,0.862986 0.21049,0.820889 v 0.905082 l 0.0421,0.905083 0.12629,0.94718 -0.0842,0.778792 -0.0421,0.820889 v 0.652502 l -0.0421,0.336775 0.16838,0.336775 0.31573,-0.08419 0.33678,-0.463066 0.33677,-0.442017 0.39992,-0.905083 0.50516,-0.905082 0.52621,-0.989277 0.16839,-0.589356 0.31573,-0.736696 0.33677,-0.736695 0.56831,-0.862986 v -0.736695 l 0.29468,-0.505163 0.37887,-1.010322 0.31573,-0.90509 0.0421,-0.54725 0.33677,-0.82089 0.29468,-0.98928 0.35782,-0.86299 0.25258,-0.48411 0.29468,-0.25258 h 0.44202 l 0.33677,0.25258 0.31573,0.6946 0.90508,0.90508 0.0842,0.7367 0.12629,0.90508 0.16838,0.90508 0.25259,0.77879 0.35782,0.58936 0.29468,0.778792 0.29468,0.610405 0.39992,0.905083 0.29467,0.610405 0.56831,1.410245 0.33678,0.568308 0.0842,0.294678 0.35782,0.12629 0.21049,-0.210484 v -0.610405 l -0.0421,-0.378871 0.0421,-0.420969 0.56831,-0.736696 0.54726,-0.862986 0.25258,-0.989276 0.18943,-1.304999 0.0421,-1.03138 0.0842,-0.94718 0.37888,-0.6525 0.44201,-0.37887 0.54726,-0.52621 0.12629,-0.54726 -0.29468,-0.86299 0.0421,-0.73669 v -0.90509 l 0.21049,-0.98927 0.18943,-0.56831 0.37887,-0.37887 0.61041,-0.35782 0.33677,-0.37888 0.25258,-0.82089 0.39992,-0.90508 0.46307,-0.86298 0.39992,-0.61041 0.37887,-0.46307 0.6946,-0.77879 h 0.52621 l 0.46307,0.12629 z"
         id="path4524" />
      <path
         d="m -668.83164,-112.67494 -0.37887,0.31572 -0.12629,-0.31572 0.12629,-0.42097 0.37887,0.0842 z m 9.32446,12.944787 -0.31572,1.978553 -0.7788,2.02065 -0.54726,1.178712 -0.52621,0.715647 -0.6946,0.862986 -0.79984,0.820889 -0.96822,0.526211 -1.41025,0.420969 -1.51549,0.231533 -1.45234,-0.189436 -1.305,-0.252581 -1.03138,-0.568308 -1.93645,-1.157664 -1.11557,-1.073471 -0.56831,-0.610404 -0.73669,-0.905083 -0.46307,-1.157664 -0.31572,-1.157664 -0.16839,-1.22081 0.16839,-0.905082 -0.21049,-1.15766 -0.25258,-0.86299 0.29468,-1.03137 v -0.52621 l 0.29468,-0.33678 v -0.82089 l 0.27363,-0.52621 0.46306,-0.54726 0.31573,-1.11557 0.58935,-1.01032 0.65251,-0.71565 0.46306,-0.82089 0.56831,-0.0842 0.6525,-0.52621 0.46307,-0.21049 0.6104,-0.29467 0.61041,-0.48412 0.67355,-0.25258 0.6525,-0.6525 0.6104,-0.7367 0.21049,-0.21048 0.52621,-0.25258 0.82089,0.16838 0.75774,0.50517 0.6525,0.73669 0.25258,1.11557 -0.12629,0.77879 -0.82089,0.82089 -1.07347,0.48412 -1.45234,0.0842 -0.94718,1.28395 -0.6104,1.30501 -0.6946,0.94718 -0.61041,1.64177 -0.16838,1.62073 -0.33678,1.4734 0.58936,1.515483 0.18943,1.452342 0.7788,0.905083 0.75774,1.725972 0.56831,0.12629 0.29467,0.315727 0.6946,0.168387 0.94718,0.126291 1.11557,-0.294678 1.09452,-0.357824 0.67355,-0.547259 0.0421,-1.515488 0.48411,-0.294678 -0.0421,-1.220809 0.29468,-0.799841 0.12629,-0.862986 0.27363,-0.736692 -0.16839,-0.7367 -0.10524,-1.11557 -0.42097,-0.77879 -0.5683,-0.39992 -0.42097,-0.86298 -0.7367,-0.98928 0.12629,-0.82089 0.25258,-0.71565 0.48412,-0.31572 h 0.6946 l 0.90508,0.5683 0.86298,0.46307 0.42097,0.82089 0.56831,0.52621 0.16839,0.86299 0.33677,0.86298 0.27363,0.6946 0.46307,0.67355 0.12629,1.13662 z m -16.27044,-6.503967 -0.33678,0.25258 -0.33677,0.16839 -0.0421,-0.42097 0.21049,-0.44202 h 0.37887 z"
         id="path4526" />
      <path
         d="m -637.6168,-86.02762 -0.1263,0.08419 h -0.31572 l -0.33678,-0.168387 -0.44201,-0.252581 -1.11557,-0.820889 -0.77879,-0.694599 -0.82089,-1.031373 -0.63146,-0.862986 -0.52621,-0.905083 -0.6525,-0.694598 -0.90508,-1.115568 -1.03137,-0.989276 -0.94718,-0.862986 -0.7367,-0.94718 -1.07347,-1.262906 -0.77879,-1.157664 -0.82089,-1.031374 -0.77879,-0.947179 -0.90509,-0.778794 -0.98927,-0.56831 h -0.94718 l -0.0421,0.61041 -0.29468,0.989275 -0.25258,1.557584 -0.0421,0.94718 -0.23153,0.820889 -0.29468,2.189038 -0.0842,1.262906 v 0.778792 l -0.12629,1.768069 v 0.420969 l 0.21048,0.336775 0.33678,0.39992 0.18943,0.547259 -0.10524,0.315727 -0.21048,0.294678 -0.37887,0.168387 -0.39992,-0.08419 -0.29468,-0.252582 -0.21049,-0.336775 -0.52621,-0.862986 -0.0842,-1.052421 v -1.283955 l 0.0842,-2.02065 0.21049,-0.820889 0.10524,-0.526211 v -1.031374 l 0.12629,-0.610404 0.12629,-0.631453 0.0421,-0.694599 0.21048,-0.905083 0.0842,-0.989276 0.21049,-1.073467 0.0631,-1.13662 0.21049,-0.71565 0.0421,-0.82089 v -0.98927 l 0.12629,-1.01033 0.0421,-1.07347 0.42097,-2.23113 0.14734,-0.82089 v -0.82089 l 0.0421,-1.15766 0.29468,-0.7788 0.25258,-0.73669 -0.16839,-0.7367 0.16839,-0.77879 -0.33678,-0.82089 0.12629,-0.67355 0.33678,-0.6104 0.90508,-0.0842 0.90508,-0.6104 0.86299,-0.12629 1.22081,-0.0421 1.28395,0.0421 1.4313,0.12629 0.6946,0.29468 0.58935,0.23153 0.61041,0.46307 0.6946,0.6525 0.42096,0.77879 0.44202,0.82089 0.37887,1.07347 v 0.6946 l 0.37888,0.82089 -0.0421,0.94718 0.10524,0.46306 -0.10524,0.94718 -0.16839,0.82089 -0.12629,0.94718 -0.0421,0.86299 -0.16838,0.73669 -0.39992,0.90508 -0.58936,0.7367 -0.61041,0.42097 -0.6525,0.52621 -0.63145,0.33677 -0.6104,0.39992 v 0.82089 l 0.21048,0.63146 0.25258,0.6525 0.14734,0.610403 0.58936,1.452342 0.90508,1.515488 0.39992,0.694598 0.37887,0.862986 0.61041,1.115567 0.33677,0.694599 0.56831,0.820889 0.29468,0.905083 0.35782,0.820889 0.54726,0.862986 0.44202,0.715647 0.67355,0.820889 0.82089,0.778792 0.5683,0.610405 0.42097,0.547259 0.18944,0.27363 z m -14.01826,-11.513496 -0.0421,0.315727 -0.33678,-0.105242 -0.0421,-0.210485 0.33677,-0.294678 z m 5.47259,-12.586964 -0.29468,-0.90508 0.21049,-0.90509 -0.21049,-0.37887 v -1.59968 l -0.44202,-0.6525 -0.86298,-0.25258 -0.71565,-0.29468 -0.35782,0.16839 -0.29468,-0.0421 -1.3471,0.46306 -0.25258,0.39993 -0.16839,0.50516 -0.16839,0.6946 -0.16838,0.90508 v 0.77879 l -0.48412,2.23114 -0.42097,1.09451 -0.27363,0.90509 -0.0842,1.03137 0.0842,0.50516 -0.0842,0.6946 0.44202,0.35783 0.63145,0.16838 0.56831,-0.31572 1.03137,-0.25259 1.3471,-0.25258 0.71565,-0.48411 0.77879,-0.63145 0.27363,-0.65251 -0.14734,-0.39992 0.14734,-0.42096 v -0.7788 l 0.0421,-0.73669 z m -0.37887,-1.19976 -0.35783,0.21048 -0.21048,-0.29468 0.21048,-0.35782 0.35783,0.14734 z"
         id="path4528" />
      <path
         d="m -621.70418,-91.836989 -0.0421,0.589356 -0.31572,0.484114 -0.16839,0.378872 -0.37887,0.315727 h -0.65251 l -0.5683,0.168387 -0.63146,0.210485 h -0.73669 l -0.86299,-0.08419 -0.98927,0.168387 h -0.65251 l -0.73669,0.210485 -0.58936,0.357823 -0.82089,0.252581 -0.77879,0.484114 -0.6525,0.420969 h -1.19976 l -0.7367,-0.12629 h -0.86298 l -0.6946,-0.0421 -0.58936,-0.126291 -0.6525,-0.231533 -0.73669,0.105242 -0.48412,-0.147339 -0.21048,-0.336775 0.0421,-0.484114 v -0.547259 l 0.0421,-0.484114 0.23153,-0.463066 -0.10524,-0.484114 0.10524,-0.420969 0.12629,-0.526211 v -0.652501 l 0.21049,-0.799841 0.0421,-0.820889 -0.0421,-0.694598 0.12629,-0.652502 0.0842,-0.736695 0.16839,-0.631453 0.0421,-0.778793 -0.0421,-0.442017 v -1.641778 l 0.0421,-0.71565 v -0.94718 l 0.10524,-0.69459 0.0842,-0.90509 0.0421,-0.56831 -0.0421,-0.58935 -0.0842,-0.61041 0.0842,-0.5683 v -0.7367 l 0.0421,-0.67355 0.0842,-0.6525 -0.0842,-0.39992 0.0842,-0.42097 0.0842,-0.56831 -0.0421,-0.42097 0.16839,-0.52621 -0.21049,-0.46306 -0.0842,-0.61041 v -0.6946 l -0.0421,-0.63145 -0.0842,-0.6525 v -0.56831 l 0.21048,-0.37887 -0.31572,-0.35782 -0.0842,-0.42097 0.27363,-0.37888 v -0.48411 l 0.16839,-0.52621 v -0.63145 l 0.0421,-0.56831 -0.0421,-0.37887 0.37887,-0.48412 0.44202,-0.37887 0.42097,-0.16839 0.52621,-0.0631 0.54726,-0.16839 0.52621,0.0421 0.48411,0.31572 0.46307,0.25259 0.56831,0.37887 0.37887,0.56831 0.16839,0.6104 0.0842,0.46307 -0.16839,0.5683 -0.0842,0.42097 -0.50516,0.44202 -0.31573,0.50516 -0.12629,0.82089 -0.21048,0.56831 -0.1263,0.56831 -0.12629,0.58935 -0.18943,0.61041 v 0.6946 l -0.21049,0.67355 -0.16838,1.22081 v 0.63145 l -0.21049,0.56831 -0.12629,0.44201 -0.23153,0.37888 -0.0421,0.5683 -0.12629,0.67355 -0.16839,1.4313 v 0.6946 l -0.21048,0.58935 -0.0842,0.77879 -0.18944,0.7367 v 0.6946 l -0.12629,0.50516 -0.0842,0.442017 v 0.652502 l -0.16839,0.547259 -0.0421,0.568308 -0.12629,0.652502 -0.21048,0.715647 0.0421,0.526211 -0.0421,0.862985 -0.14734,0.652502 -0.12629,0.463066 v 0.315726 l -0.0842,0.463066 -0.0421,0.568308 0.12629,0.252581 0.39992,0.08419 0.46306,-0.210485 0.7367,-0.08419 0.82089,-0.08419 h 0.46306 l 0.61041,0.252581 h 0.6946 l 0.46306,-0.168387 0.56831,-0.0421 0.77879,-0.27363 0.42097,-0.168388 0.6525,0.0421 0.82089,0.126291 0.77879,-0.126291 0.90509,-0.210484 0.69459,-0.336775 0.54726,-0.27363 0.12629,-0.378872 0.61041,-0.336775 0.48411,-0.231532 0.58936,0.12629 0.44202,0.315727 0.25258,0.463065 0.44201,0.442018 0.0842,0.463065 0.12629,0.568308 z m -3.11517,-6.945985 -0.12629,0.252582 -0.25258,-0.08419 -0.21049,-0.378872 0.29468,-0.357823 0.29468,0.210484 z m -12.58697,-6.125096 -0.0421,0.25258 -0.33678,0.18944 -0.21048,-0.31573 0.25258,-0.33677 z"
         id="path4530" />
      <path
         d="m -611.39045,-107.8759 -0.23153,0.21049 -0.77879,0.0842 -0.33678,-0.46307 1.11557,-0.10524 z m 5.68308,3.40985 -0.21048,0.90508 -0.0842,1.19976 -0.27363,1.15767 0.1263,0.86298 0.0842,1.262908 -0.25258,0.841938 v 1.178712 l -0.50516,0.989277 -0.39992,0.989276 -1.55759,2.546861 -0.71565,0.589357 -0.94718,0.652501 -0.94718,0.357824 -1.9996,0.252581 -1.11556,-0.126291 -0.90509,0.126291 -0.5683,0.0421 -0.42097,-0.168388 -0.21049,-0.168387 -0.23153,-0.315727 0.23153,-0.589356 0.50516,-0.610405 0.65251,-0.210484 0.37887,0.126291 0.77879,-0.610405 0.7367,-0.294678 0.77879,-0.08419 0.6525,-0.526211 0.73669,-0.294678 0.67355,-0.39992 0.7367,-0.862986 0.6104,-0.989277 0.58936,-0.820889 0.31573,-0.820889 -0.12629,-0.94718 0.16838,-0.862989 -0.16838,-0.71564 -0.14734,-0.7367 0.27363,-0.86298 -0.0842,-0.65251 0.21049,-0.86298 -0.0842,-1.03138 -0.21048,-0.98927 -0.31573,-1.3471 -0.37887,-1.24186 -0.35782,-0.56831 -0.0842,-0.71565 -0.46306,-0.82088 -0.6525,-0.61041 -0.7367,-0.37887 -1.57863,0.0842 -0.96823,0.29468 -0.46306,0.61041 -0.16839,0.94718 -0.31573,0.86298 -0.25258,1.11557 -0.21048,0.98928 -0.16839,1.15766 -0.18944,0.6946 -0.12629,0.56831 0.12629,0.82088 0.18944,0.75775 -0.44202,0.39992 0.21049,0.46306 -0.16839,0.61041 v 0.82089 l -0.25258,0.6525 -0.0421,0.94718 v 0.694598 l -0.21048,0.67355 -0.18944,0.526211 v 0.652502 l -0.12629,0.778792 -0.29468,1.07347 v 0.547259 l -0.0421,1.389197 -0.0421,0.652502 0.0421,0.631453 0.16839,0.820889 0.29468,0.39992 -0.0421,0.505163 -0.25258,0.568308 -0.37887,0.08419 -0.39992,-0.08419 -0.29468,-0.168388 -0.16839,-0.231533 -0.21048,-0.463065 -0.18944,-1.115567 -0.0421,-0.862986 0.0421,-0.905083 -0.0421,-0.905083 v -0.652502 l 0.16838,-1.157664 0.10525,-1.178712 0.21048,-1.031374 0.0842,-0.820889 0.16839,-0.862986 v -1.157662 l 0.0842,-1.32605 0.16838,-1.17872 -0.16838,-0.63145 -0.0842,-1.01032 0.12629,-1.28396 0.31573,-1.03137 v -0.82089 l 0.29468,-1.51549 v -0.82089 l -0.16839,-0.63145 0.0421,-0.56831 -0.35783,-0.42097 -0.16838,-0.56831 -0.0842,-0.48411 0.12629,-0.82089 0.39992,-0.37887 0.94718,-0.33678 0.90508,-0.44201 0.98928,-0.29468 0.94718,-0.0421 h 0.6525 l 1.62073,0.33678 0.7367,0.0842 0.56831,0.31573 0.12629,0.29468 0.6525,0.12629 0.63145,0.5683 0.56831,0.46307 0.44202,0.90508 0.37887,0.6946 0.25258,0.82089 0.31573,0.6104 0.29467,0.86299 0.37888,1.03137 0.14733,0.82089 0.0842,0.98928 0.21048,0.82089 z m -15.95471,-1.3892 -0.42097,0.29468 -0.52621,-0.16839 0.44201,-0.33677 z"
         id="path4532" />
    </g>
    <g
       aria-label="ZEN"
       id="text2210"
       style="font-size:43.1072px;line-height:1.25;font-family:Chiller;-inkscape-font-specification:'Chiller, Normal';letter-spacing:0px;word-spacing:0px;baseline-shift:baseline;fill:#800000;stroke:#800000;stroke-width:1.07795;stroke-linecap:round;stroke-linejoin:round;paint-order:markers stroke fill;stop-color:#000000">
      <path
         d="m -520.96634,-110.73534 -0.0842,0.58936 -0.42097,0.44202 -0.39992,0.21048 h -0.6525 l -0.50517,-0.21048 -0.6104,-0.35783 -0.50516,-0.0842 -0.6946,-0.21048 -0.77879,0.0421 -0.7367,0.16839 -0.86299,0.0842 h -0.77879 l -0.77879,0.18944 -0.63145,0.21048 -0.94718,0.29468 -0.39992,0.29468 h -0.58936 l -0.82089,0.35782 -0.56831,0.0421 -0.6104,0.33678 -0.50516,0.0842 -0.7788,0.35782 -0.90508,0.12629 -0.86298,0.0421 h -2.02065 l -0.94718,-0.12629 -0.98928,-0.39992 -0.39992,-0.50516 -0.21049,-0.56831 -0.16838,-0.42097 v -0.52621 l 0.12629,-0.37887 0.25258,-0.61041 0.33677,-0.37887 0.48412,-0.27363 0.82089,-0.42097 0.98927,-0.21048 0.90509,0.0842 1.15766,0.0421 0.98928,-0.0421 1.05242,-0.0842 0.63145,0.12629 0.90509,-0.23153 1.03137,-0.0842 0.77879,-0.16839 h 2.37847 l 1.11557,0.0421 1.26291,0.12629 2.27323,0.44202 0.73669,0.16839 0.56831,0.0842 h 0.46307 l 0.52621,0.29468 0.25258,0.44202 z m -1.51549,22.058766 -0.0842,0.357824 -0.58936,0.0421 -1.47339,-0.357824 -0.86298,-0.08419 -0.7367,0.08419 -0.94718,-0.168387 -1.03137,-0.0421 h -0.94718 l -1.19976,0.0421 h -1.26291 l -0.86298,0.08419 h -0.86299 l -0.63145,0.0421 -0.61041,-0.12629 -1.03137,0.08419 -0.94718,0.0421 h -0.6525 l -0.94718,0.168388 -0.6525,0.189436 -0.6946,0.0421 -0.63146,-0.189436 -1.07347,0.147339 h -0.86298 l -0.7367,-0.315727 -0.35782,-0.463065 -0.16839,-0.568308 -0.16839,-0.652502 -0.0842,-0.67355 0.21048,-0.610404 0.39992,-0.442018 0.63146,-0.547259 0.6104,-0.39992 0.98928,-0.378872 0.6525,-0.610405 0.46307,-0.463066 0.86298,-0.568307 0.44202,-0.420969 0.82089,-0.610405 0.29468,-0.526211 0.6104,-0.294678 0.54726,-0.568308 1.22081,-1.115567 0.0421,-0.294678 0.25258,-0.168388 0.29468,-0.39992 0.44201,-0.378872 0.46307,-0.568311 0.39992,-0.42097 0.37887,-0.18943 0.35782,-0.42097 0.63146,-0.48411 0.56831,-0.50517 0.73669,-0.77879 0.82089,-0.90508 0.67355,-0.6525 0.6104,-0.46307 0.33678,-0.56831 0.7367,-0.50516 0.31572,-0.6946 0.42097,-0.6104 0.6525,-0.37887 0.58936,-0.23154 0.48411,-0.54726 0.48412,-0.39992 0.63145,-0.21048 0.56831,0.16839 0.16838,0.44201 -0.16838,0.37888 -0.56831,0.39992 -0.63145,0.16838 -0.56831,0.37888 -0.56831,0.48411 -0.42097,0.37887 -0.16839,0.56831 -0.48411,0.6104 -0.73669,0.79984 -0.67355,0.35783 -0.82089,0.82089 -0.7788,0.63145 -0.44201,0.48411 -1.24186,1.24186 -0.82089,0.61041 -0.7367,0.568304 -0.37887,0.463066 -0.56831,0.357823 -0.29467,0.378872 -0.56831,0.484114 -0.42097,0.54726 -0.56831,0.39992 -0.37887,0.505163 -0.6104,0.526211 -0.7367,0.589356 -0.50516,0.484114 -0.56831,0.610405 -0.77879,0.631453 -0.37887,0.778792 -0.65251,0.442017 -0.33677,0.736695 -0.39992,0.67355 -0.56831,0.526211 -0.21048,0.378872 0.21048,0.27363 0.61041,0.378872 0.6104,0.252581 0.50516,0.08419 0.48412,-0.505163 0.90508,-0.252581 1.15766,-0.231533 0.65251,0.08419 h 2.54686 l 0.86298,-0.08419 1.03138,0.0421 h 0.77879 l 0.94718,0.0421 0.98927,0.147339 h 1.15767 l 0.90508,0.08419 0.82089,0.210484 0.82089,0.08419 0.6946,0.210484 0.73669,0.168388 0.63146,0.27363 0.6104,0.210484 z"
         id="path4459" />
      <path
         d="m -502.63315,-112.65074 -0.0421,0.39992 -0.31572,0.12629 h -0.29468 l -0.61041,-0.25258 -0.54726,-0.27363 h -1.47339 l -0.98927,0.31572 -1.11557,0.21049 -1.3892,0.6946 -0.94718,0.16838 h -0.6104 l -0.58936,0.25258 -1.59968,0.0421 h -1.3471 l -1.41024,0.12629 -1.22081,0.23153 -0.63146,0.21049 -0.39992,0.6525 -0.16838,0.71565 -0.1263,1.09452 -0.0842,1.07347 -0.21048,1.85226 0.0421,0.37887 -0.18943,1.22081 0.18943,0.12629 0.33678,-0.0842 0.52621,-0.21049 0.71565,-0.6525 0.6525,-0.25258 h 1.38919 l 1.81017,0.0421 1.15766,0.0842 0.21049,0.16839 0.35782,0.29468 h 1.07347 l 0.37887,0.25258 0.39992,-0.0421 0.82089,0.27363 0.86299,0.12629 0.0421,0.21048 -0.14734,0.16839 -0.50517,0.35783 h -0.48411 l -0.37887,-0.0842 -1.43129,-0.0421 -1.57864,0.25258 -1.47339,0.16838 -1.3471,0.21049 -1.32605,0.0842 -1.07347,0.39992 -1.03137,-0.73669 -0.14734,1.15766 0.0631,0.82089 0.0842,1.031374 0.25258,1.136615 0.37887,1.241858 0.39992,1.115567 1.19976,1.683875 0.6525,0.736696 0.90509,0.568308 0.90508,0.463065 1.11557,0.568308 1.3471,0.168388 1.41024,0.252581 1.07347,0.252581 0.6946,-0.0421 0.6104,0.189436 1.64178,0.252581 0.33678,0.294679 -0.0842,0.315726 -0.12629,0.378872 -0.48411,0.08419 -1.03137,-0.126291 -1.07348,0.0421 -1.68387,0.08419 -1.15766,-0.08419 -0.86299,-0.294678 -0.39992,0.0421 -0.58936,-0.126291 -1.17871,-0.315726 -0.77879,-0.168388 -0.58936,-0.526211 -0.6525,-0.420969 -0.56831,-0.442017 -0.58935,-0.989276 -0.6525,-1.031374 -0.1263,-0.94718 0.1263,-0.652501 -0.50517,-0.94718 -0.14734,-1.031373 -0.37887,-0.54726 -0.0842,-1.220809 -0.21049,-0.778797 0.12629,-0.79984 -0.23153,-1.17871 0.23153,-0.77879 -0.31572,-0.54726 0.14734,-0.23153 -0.0631,-0.63146 0.23153,-0.69459 -0.12629,-0.6946 0.33678,-0.7367 -0.12629,-0.98927 v -0.7788 l 0.29468,-0.50516 -0.0842,-0.73669 0.16839,-0.42097 -0.0842,-0.7788 -0.37888,-0.44201 -0.77879,-0.7788 -0.0421,-0.42096 0.0421,-0.7367 0.16839,-0.94718 0.29468,-0.6946 0.77879,-0.50516 0.6946,-0.23153 0.52621,-0.21049 0.90508,0.25258 0.98928,0.48412 1.28395,0.0421 1.76807,-0.0421 2.33638,-0.0842 h 1.36815 l 1.07347,0.29468 1.09452,0.0842 0.82089,0.12629 0.75774,0.23153 0.56831,0.16839 h 0.37887 l 0.82089,0.46306 0.6946,0.44202 z m -13.84987,21.658838 -0.0842,0.294678 -0.37887,-0.0421 v -0.357824 l 0.29468,-0.210484 z"
         id="path4461" />
      <path
         d="m -490.61449,-112.86123 -0.50516,0.31573 v -0.56831 l 0.46306,0.0421 z m 7.72477,-3.57823 -0.0421,0.6104 v 0.6946 l -0.25258,0.46307 0.0842,0.35782 -0.16839,0.58936 -0.48411,0.6104 -0.37887,0.56831 -0.18944,1.24186 v 0.77879 l -0.21048,1.07347 0.0421,0.56831 -0.21048,0.94718 -0.0421,0.86298 -0.39992,0.77879 -0.16839,0.98928 -0.0842,0.98928 -1.28395,2.71525 -0.44202,0.33677 -0.12629,0.6525 -0.37887,0.61041 -0.18944,0.989273 -0.21048,0.589357 v 0.820889 l -0.50517,1.3471 -0.35782,0.631453 -0.12629,1.010325 -0.0842,0.799841 -0.21049,0.778792 0.0421,0.652501 -0.12629,0.694599 0.0842,0.378872 -0.35782,0.442017 -0.37887,0.862986 h -0.33678 l -0.44202,-0.08419 -0.16838,-0.610405 -0.82089,-0.442017 -0.29468,-0.757744 -0.18944,-0.652501 -0.46306,-0.778792 v -0.526211 l -0.44202,-0.505163 0.39992,-0.778792 -0.44202,-0.778792 -0.12629,-1.157664 -0.63145,-1.389197 -0.23153,-1.199761 -0.21049,-0.947182 -0.29468,-1.51549 -0.16838,-0.50516 -0.23154,-0.73669 -0.33677,-0.90509 -0.61041,-1.81016 -0.69459,-1.03138 -0.46307,0.86299 -0.16839,0.33678 v 2.42057 l -0.16838,1.15766 0.12629,1.07347 -0.23154,1.26291 -0.21048,1.326048 -0.33678,0.652502 -0.16838,1.07347 -0.18944,1.283955 -0.0842,2.462667 -0.29468,0.610405 0.16839,0.547259 -0.46307,0.610405 -0.77879,0.336775 -0.98928,0.0421 -0.77879,-0.463066 -0.21049,-0.778792 -0.31572,-0.94718 -0.21049,-0.862986 v -0.694598 l 0.56831,-0.862986 0.37887,-0.378872 0.33678,-0.442017 0.39992,-0.905083 0.0421,-1.157664 0.42096,-0.989276 0.14734,-0.905083 0.37888,-0.6946 -0.16839,-2.02065 -0.21049,-0.6525 -0.14734,-1.15766 0.23154,-1.15767 0.29468,-0.77879 0.25258,-0.98928 0.6525,-0.6104 0.29468,-2.54686 0.6104,-0.7788 0.16839,-0.86298 0.6104,-0.75774 0.21049,-0.23154 0.29468,-0.21048 0.10524,-0.52621 0.25258,-0.16839 h 0.37887 l 0.27363,0.31573 0.12629,0.63145 0.25258,1.03137 0.21049,1.22081 0.31572,2.84154 0.16839,1.28396 0.29468,0.77879 0.12629,0.82089 0.0842,0.77879 0.31573,1.15766 0.12629,1.30501 0.54726,0.86298 0.31573,1.28396 0.0842,1.220807 0.29468,1.031373 0.31573,1.199761 0.21048,0.778792 0.16839,0.420969 h 0.33677 l 0.27363,-0.420969 0.50516,-0.442017 0.16839,-0.905083 0.31573,-0.210484 -0.0842,-0.420969 0.29468,-1.031373 -0.12629,-0.694599 0.12629,-0.862988 0.37887,-0.39992 0.39993,-0.63145 0.33677,-0.77879 0.44202,-0.7788 0.42097,-0.48411 v -0.79984 l 0.39992,-0.77879 0.21048,-0.52621 0.29468,-0.94718 0.16839,-0.7788 -0.0842,-1.24185 -0.29468,-0.94718 -0.33677,-0.98928 -0.35782,-0.73669 v -0.86299 l -0.0842,-1.11557 0.44202,-0.48411 v -0.61041 l 0.33677,-0.42097 0.21049,-1.3471 0.31573,-0.79984 0.33677,0.16839 0.7367,-0.27363 0.42096,-0.50516 0.7788,-0.31573 0.52621,-0.16838 0.46306,0.35782 0.27363,0.63145 0.25258,-0.0421 z m -17.36496,27.594499 -0.39992,0.168387 -0.33677,-0.168387 0.12629,-0.442017 0.46306,0.105242 z"
         id="path4463" />
    </g>
    <g
       aria-label="WORLD"
       id="text2204"
       style="font-size:43.1072px;line-height:1.25;font-family:Chiller;-inkscape-font-specification:'Chiller, Normal';letter-spacing:0px;word-spacing:0px;baseline-shift:baseline;fill:#800000;stroke:#800000;stroke-width:1.07795;stroke-linecap:round;stroke-linejoin:round;paint-order:markers stroke fill;stop-color:#000000">
      <path
         d="m -679.73473,-114.21148 -0.16838,0.25258 -0.27363,-0.21048 -0.12629,-0.35783 0.35782,-0.25258 0.21048,0.25258 z m 1.41025,0.90508 -0.0421,0.58936 -0.12629,0.48411 v 0.50517 l -0.16839,0.35782 -0.25258,0.61041 -0.23153,0.79984 -0.37887,0.90508 v 0.52621 l -0.37887,1.32605 -0.52621,1.05242 0.12629,0.50517 -0.21049,0.69459 -0.12629,0.6946 -0.21048,0.46307 -0.0632,0.77879 -0.16839,0.94718 v 0.6104 l -0.37887,0.82089 -0.21048,1.115571 -0.0421,0.989277 -0.18944,0.820889 -0.21048,0.778792 -0.33677,0.820889 -0.48412,0.94718 -0.21048,0.820889 -0.29468,0.694598 -0.0842,0.463066 -0.35782,0.252581 -0.42097,0.94718 -0.56831,0.315726 -0.21048,0.54726 -0.44202,0.39992 -0.71564,0.378872 -0.90509,0.0421 -0.82089,-0.168388 -0.44201,-0.420968 -0.25258,-0.442018 -0.48412,-0.420968 -0.42097,-0.736696 -0.5683,-0.778792 -0.46307,-0.862986 -0.44202,-0.652501 -0.16839,-0.989277 -0.6104,-0.989277 -0.12629,-0.778792 -0.37887,-0.547259 v -0.989277 l -0.12629,-0.736695 -0.27363,-0.08419 -0.29468,-0.526209 h -0.42097 l -0.39992,0.484112 -0.33677,0.862986 -0.27363,0.989277 -0.29468,0.715647 -0.42097,1.094519 -0.86299,2.02065 -0.18943,0.694598 -0.33678,0.778792 -0.33677,0.631453 -0.7367,0.652502 -0.35782,0.778792 -0.37887,0.505163 -0.33678,0.484114 -0.31573,0.420968 -0.37887,0.147339 h -0.39992 l -0.33677,-0.442017 -0.0842,-0.610404 -0.0842,-0.67355 0.16839,-0.820889 -0.0842,-0.94718 v -0.694599 l 0.0842,-0.905082 -0.16839,-0.905083 v -0.905083 l -0.0842,-0.862986 -0.21049,-0.905083 v -0.862986 l -0.18943,-0.378872 0.0421,-0.610404 -0.21048,-0.947184 -0.12629,-0.90508 -0.0421,-0.86298 -0.21048,-0.98928 -0.23154,-0.82089 -0.0421,-0.44202 -0.0842,-0.67355 -0.25258,-0.6525 -0.0421,-0.6525 -0.21048,-0.61041 -0.39992,-0.54725 v -0.56831 l 0.0421,-0.37887 0.39992,-0.31573 0.21048,-0.33678 0.44202,-0.12629 0.90508,0.12629 0.25258,0.44202 0.33678,0.50516 0.21048,0.61041 -0.16839,0.63145 -0.16838,0.96823 0.21048,0.75774 0.12629,0.52621 v 0.61041 l 0.0632,0.86298 v 0.82089 l 0.0421,0.63146 v 0.73669 l 0.1263,0.86299 0.0842,1.073469 0.0842,0.862986 0.21049,0.820889 v 0.905082 l 0.0421,0.905083 0.12629,0.94718 -0.0842,0.778792 -0.0421,0.820889 v 0.652502 l -0.0421,0.336775 0.16838,0.336775 0.31573,-0.08419 0.33678,-0.463066 0.33677,-0.442017 0.39992,-0.905083 0.50516,-0.905082 0.52621,-0.989277 0.16839,-0.589356 0.31573,-0.736696 0.33677,-0.736695 0.56831,-0.862986 v -0.736695 l 0.29468,-0.505163 0.37887,-1.010322 0.31573,-0.90509 0.0421,-0.54725 0.33677,-0.82089 0.29468,-0.98928 0.35782,-0.86299 0.25258,-0.48411 0.29468,-0.25258 h 0.44202 l 0.33677,0.25258 0.31573,0.6946 0.90508,0.90508 0.0842,0.7367 0.12629,0.90508 0.16838,0.90508 0.25259,0.77879 0.35782,0.58936 0.29468,0.778792 0.29468,0.610405 0.39992,0.905083 0.29467,0.610405 0.56831,1.410245 0.33678,0.568308 0.0842,0.294678 0.35782,0.12629 0.21049,-0.210484 v -0.610405 l -0.0421,-0.378871 0.0421,-0.420969 0.56831,-0.736696 0.54726,-0.862986 0.25258,-0.989276 0.18943,-1.304999 0.0421,-1.03138 0.0842,-0.94718 0.37888,-0.6525 0.44201,-0.37887 0.54726,-0.52621 0.12629,-0.54726 -0.29468,-0.86299 0.0421,-0.73669 v -0.90509 l 0.21049,-0.98927 0.18943,-0.56831 0.37887,-0.37887 0.61041,-0.35782 0.33677,-0.37888 0.25258,-0.82089 0.39992,-0.90508 0.46307,-0.86298 0.39992,-0.61041 0.37887,-0.46307 0.6946,-0.77879 h 0.52621 l 0.46307,0.12629 z"
         style="fill:#000000;stroke:#000000"
         id="path4466" />
      <path
         d="m -668.83164,-112.67494 -0.37887,0.31572 -0.12629,-0.31572 0.12629,-0.42097 0.37887,0.0842 z m 9.32446,12.944787 -0.31572,1.978553 -0.7788,2.02065 -0.54726,1.178712 -0.52621,0.715647 -0.6946,0.862986 -0.79984,0.820889 -0.96822,0.526211 -1.41025,0.420969 -1.51549,0.231533 -1.45234,-0.189436 -1.305,-0.252581 -1.03138,-0.568308 -1.93645,-1.157664 -1.11557,-1.073471 -0.56831,-0.610404 -0.73669,-0.905083 -0.46307,-1.157664 -0.31572,-1.157664 -0.16839,-1.22081 0.16839,-0.905082 -0.21049,-1.15766 -0.25258,-0.86299 0.29468,-1.03137 v -0.52621 l 0.29468,-0.33678 v -0.82089 l 0.27363,-0.52621 0.46306,-0.54726 0.31573,-1.11557 0.58935,-1.01032 0.65251,-0.71565 0.46306,-0.82089 0.56831,-0.0842 0.6525,-0.52621 0.46307,-0.21049 0.6104,-0.29467 0.61041,-0.48412 0.67355,-0.25258 0.6525,-0.6525 0.6104,-0.7367 0.21049,-0.21048 0.52621,-0.25258 0.82089,0.16838 0.75774,0.50517 0.6525,0.73669 0.25258,1.11557 -0.12629,0.77879 -0.82089,0.82089 -1.07347,0.48412 -1.45234,0.0842 -0.94718,1.28395 -0.6104,1.30501 -0.6946,0.94718 -0.61041,1.64177 -0.16838,1.62073 -0.33678,1.4734 0.58936,1.515483 0.18943,1.452342 0.7788,0.905083 0.75774,1.725972 0.56831,0.12629 0.29467,0.315727 0.6946,0.168387 0.94718,0.126291 1.11557,-0.294678 1.09452,-0.357824 0.67355,-0.547259 0.0421,-1.515488 0.48411,-0.294678 -0.0421,-1.220809 0.29468,-0.799841 0.12629,-0.862986 0.27363,-0.736692 -0.16839,-0.7367 -0.10524,-1.11557 -0.42097,-0.77879 -0.5683,-0.39992 -0.42097,-0.86298 -0.7367,-0.98928 0.12629,-0.82089 0.25258,-0.71565 0.48412,-0.31572 h 0.6946 l 0.90508,0.5683 0.86298,0.46307 0.42097,0.82089 0.56831,0.52621 0.16839,0.86299 0.33677,0.86298 0.27363,0.6946 0.46307,0.67355 0.12629,1.13662 z m -16.27044,-6.503967 -0.33678,0.25258 -0.33677,0.16839 -0.0421,-0.42097 0.21049,-0.44202 h 0.37887 z"
         style="fill:#000000;stroke:#000000"
         id="path4468" />
      <path
         d="m -637.6168,-86.02762 -0.1263,0.08419 h -0.31572 l -0.33678,-0.168387 -0.44201,-0.252581 -1.11557,-0.820889 -0.77879,-0.694599 -0.82089,-1.031373 -0.63146,-0.862986 -0.52621,-0.905083 -0.6525,-0.694598 -0.90508,-1.115568 -1.03137,-0.989276 -0.94718,-0.862986 -0.7367,-0.94718 -1.07347,-1.262906 -0.77879,-1.157664 -0.82089,-1.031374 -0.77879,-0.947179 -0.90509,-0.778794 -0.98927,-0.56831 h -0.94718 l -0.0421,0.61041 -0.29468,0.989275 -0.25258,1.557584 -0.0421,0.94718 -0.23153,0.820889 -0.29468,2.189038 -0.0842,1.262906 v 0.778792 l -0.12629,1.768069 v 0.420969 l 0.21048,0.336775 0.33678,0.39992 0.18943,0.547259 -0.10524,0.315727 -0.21048,0.294678 -0.37887,0.168387 -0.39992,-0.08419 -0.29468,-0.252582 -0.21049,-0.336775 -0.52621,-0.862986 -0.0842,-1.052421 v -1.283955 l 0.0842,-2.02065 0.21049,-0.820889 0.10524,-0.526211 v -1.031374 l 0.12629,-0.610404 0.12629,-0.631453 0.0421,-0.694599 0.21048,-0.905083 0.0842,-0.989276 0.21049,-1.073467 0.0631,-1.13662 0.21049,-0.71565 0.0421,-0.82089 v -0.98927 l 0.12629,-1.01033 0.0421,-1.07347 0.42097,-2.23113 0.14734,-0.82089 v -0.82089 l 0.0421,-1.15766 0.29468,-0.7788 0.25258,-0.73669 -0.16839,-0.7367 0.16839,-0.77879 -0.33678,-0.82089 0.12629,-0.67355 0.33678,-0.6104 0.90508,-0.0842 0.90508,-0.6104 0.86299,-0.12629 1.22081,-0.0421 1.28395,0.0421 1.4313,0.12629 0.6946,0.29468 0.58935,0.23153 0.61041,0.46307 0.6946,0.6525 0.42096,0.77879 0.44202,0.82089 0.37887,1.07347 v 0.6946 l 0.37888,0.82089 -0.0421,0.94718 0.10524,0.46306 -0.10524,0.94718 -0.16839,0.82089 -0.12629,0.94718 -0.0421,0.86299 -0.16838,0.73669 -0.39992,0.90508 -0.58936,0.7367 -0.61041,0.42097 -0.6525,0.52621 -0.63145,0.33677 -0.6104,0.39992 v 0.82089 l 0.21048,0.63146 0.25258,0.6525 0.14734,0.610403 0.58936,1.452342 0.90508,1.515488 0.39992,0.694598 0.37887,0.862986 0.61041,1.115567 0.33677,0.694599 0.56831,0.820889 0.29468,0.905083 0.35782,0.820889 0.54726,0.862986 0.44202,0.715647 0.67355,0.820889 0.82089,0.778792 0.5683,0.610405 0.42097,0.547259 0.18944,0.27363 z m -14.01826,-11.513496 -0.0421,0.315727 -0.33678,-0.105242 -0.0421,-0.210485 0.33677,-0.294678 z m 5.47259,-12.586964 -0.29468,-0.90508 0.21049,-0.90509 -0.21049,-0.37887 v -1.59968 l -0.44202,-0.6525 -0.86298,-0.25258 -0.71565,-0.29468 -0.35782,0.16839 -0.29468,-0.0421 -1.3471,0.46306 -0.25258,0.39993 -0.16839,0.50516 -0.16839,0.6946 -0.16838,0.90508 v 0.77879 l -0.48412,2.23114 -0.42097,1.09451 -0.27363,0.90509 -0.0842,1.03137 0.0842,0.50516 -0.0842,0.6946 0.44202,0.35783 0.63145,0.16838 0.56831,-0.31572 1.03137,-0.25259 1.3471,-0.25258 0.71565,-0.48411 0.77879,-0.63145 0.27363,-0.65251 -0.14734,-0.39992 0.14734,-0.42096 v -0.7788 l 0.0421,-0.73669 z m -0.37887,-1.19976 -0.35783,0.21048 -0.21048,-0.29468 0.21048,-0.35782 0.35783,0.14734 z"
         style="fill:#000000;stroke:#000000"
         id="path4470" />
      <path
         d="m -621.70418,-91.836989 -0.0421,0.589356 -0.31572,0.484114 -0.16839,0.378872 -0.37887,0.315727 h -0.65251 l -0.5683,0.168387 -0.63146,0.210485 h -0.73669 l -0.86299,-0.08419 -0.98927,0.168387 h -0.65251 l -0.73669,0.210485 -0.58936,0.357823 -0.82089,0.252581 -0.77879,0.484114 -0.6525,0.420969 h -1.19976 l -0.7367,-0.12629 h -0.86298 l -0.6946,-0.0421 -0.58936,-0.126291 -0.6525,-0.231533 -0.73669,0.105242 -0.48412,-0.147339 -0.21048,-0.336775 0.0421,-0.484114 v -0.547259 l 0.0421,-0.484114 0.23153,-0.463066 -0.10524,-0.484114 0.10524,-0.420969 0.12629,-0.526211 v -0.652501 l 0.21049,-0.799841 0.0421,-0.820889 -0.0421,-0.694598 0.12629,-0.652502 0.0842,-0.736695 0.16839,-0.631453 0.0421,-0.778793 -0.0421,-0.442017 v -1.641778 l 0.0421,-0.71565 v -0.94718 l 0.10524,-0.69459 0.0842,-0.90509 0.0421,-0.56831 -0.0421,-0.58935 -0.0842,-0.61041 0.0842,-0.5683 v -0.7367 l 0.0421,-0.67355 0.0842,-0.6525 -0.0842,-0.39992 0.0842,-0.42097 0.0842,-0.56831 -0.0421,-0.42097 0.16839,-0.52621 -0.21049,-0.46306 -0.0842,-0.61041 v -0.6946 l -0.0421,-0.63145 -0.0842,-0.6525 v -0.56831 l 0.21048,-0.37887 -0.31572,-0.35782 -0.0842,-0.42097 0.27363,-0.37888 v -0.48411 l 0.16839,-0.52621 v -0.63145 l 0.0421,-0.56831 -0.0421,-0.37887 0.37887,-0.48412 0.44202,-0.37887 0.42097,-0.16839 0.52621,-0.0631 0.54726,-0.16839 0.52621,0.0421 0.48411,0.31572 0.46307,0.25259 0.56831,0.37887 0.37887,0.56831 0.16839,0.6104 0.0842,0.46307 -0.16839,0.5683 -0.0842,0.42097 -0.50516,0.44202 -0.31573,0.50516 -0.12629,0.82089 -0.21048,0.56831 -0.1263,0.56831 -0.12629,0.58935 -0.18943,0.61041 v 0.6946 l -0.21049,0.67355 -0.16838,1.22081 v 0.63145 l -0.21049,0.56831 -0.12629,0.44201 -0.23153,0.37888 -0.0421,0.5683 -0.12629,0.67355 -0.16839,1.4313 v 0.6946 l -0.21048,0.58935 -0.0842,0.77879 -0.18944,0.7367 v 0.6946 l -0.12629,0.50516 -0.0842,0.442017 v 0.652502 l -0.16839,0.547259 -0.0421,0.568308 -0.12629,0.652502 -0.21048,0.715647 0.0421,0.526211 -0.0421,0.862985 -0.14734,0.652502 -0.12629,0.463066 v 0.315726 l -0.0842,0.463066 -0.0421,0.568308 0.12629,0.252581 0.39992,0.08419 0.46306,-0.210485 0.7367,-0.08419 0.82089,-0.08419 h 0.46306 l 0.61041,0.252581 h 0.6946 l 0.46306,-0.168387 0.56831,-0.0421 0.77879,-0.27363 0.42097,-0.168388 0.6525,0.0421 0.82089,0.126291 0.77879,-0.126291 0.90509,-0.210484 0.69459,-0.336775 0.54726,-0.27363 0.12629,-0.378872 0.61041,-0.336775 0.48411,-0.231532 0.58936,0.12629 0.44202,0.315727 0.25258,0.463065 0.44201,0.442018 0.0842,0.463065 0.12629,0.568308 z m -3.11517,-6.945985 -0.12629,0.252582 -0.25258,-0.08419 -0.21049,-0.378872 0.29468,-0.357823 0.29468,0.210484 z m -12.58697,-6.125096 -0.0421,0.25258 -0.33678,0.18944 -0.21048,-0.31573 0.25258,-0.33677 z"
         style="fill:#000000;stroke:#000000"
         id="path4472" />
      <path
         d="m -611.39045,-107.8759 -0.23153,0.21049 -0.77879,0.0842 -0.33678,-0.46307 1.11557,-0.10524 z m 5.68308,3.40985 -0.21048,0.90508 -0.0842,1.19976 -0.27363,1.15767 0.1263,0.86298 0.0842,1.262908 -0.25258,0.841938 v 1.178712 l -0.50516,0.989277 -0.39992,0.989276 -1.55759,2.546861 -0.71565,0.589357 -0.94718,0.652501 -0.94718,0.357824 -1.9996,0.252581 -1.11556,-0.126291 -0.90509,0.126291 -0.5683,0.0421 -0.42097,-0.168388 -0.21049,-0.168387 -0.23153,-0.315727 0.23153,-0.589356 0.50516,-0.610405 0.65251,-0.210484 0.37887,0.126291 0.77879,-0.610405 0.7367,-0.294678 0.77879,-0.08419 0.6525,-0.526211 0.73669,-0.294678 0.67355,-0.39992 0.7367,-0.862986 0.6104,-0.989277 0.58936,-0.820889 0.31573,-0.820889 -0.12629,-0.94718 0.16838,-0.862989 -0.16838,-0.71564 -0.14734,-0.7367 0.27363,-0.86298 -0.0842,-0.65251 0.21049,-0.86298 -0.0842,-1.03138 -0.21048,-0.98927 -0.31573,-1.3471 -0.37887,-1.24186 -0.35782,-0.56831 -0.0842,-0.71565 -0.46306,-0.82088 -0.6525,-0.61041 -0.7367,-0.37887 -1.57863,0.0842 -0.96823,0.29468 -0.46306,0.61041 -0.16839,0.94718 -0.31573,0.86298 -0.25258,1.11557 -0.21048,0.98928 -0.16839,1.15766 -0.18944,0.6946 -0.12629,0.56831 0.12629,0.82088 0.18944,0.75775 -0.44202,0.39992 0.21049,0.46306 -0.16839,0.61041 v 0.82089 l -0.25258,0.6525 -0.0421,0.94718 v 0.694598 l -0.21048,0.67355 -0.18944,0.526211 v 0.652502 l -0.12629,0.778792 -0.29468,1.07347 v 0.547259 l -0.0421,1.389197 -0.0421,0.652502 0.0421,0.631453 0.16839,0.820889 0.29468,0.39992 -0.0421,0.505163 -0.25258,0.568308 -0.37887,0.08419 -0.39992,-0.08419 -0.29468,-0.168388 -0.16839,-0.231533 -0.21048,-0.463065 -0.18944,-1.115567 -0.0421,-0.862986 0.0421,-0.905083 -0.0421,-0.905083 v -0.652502 l 0.16838,-1.157664 0.10525,-1.178712 0.21048,-1.031374 0.0842,-0.820889 0.16839,-0.862986 v -1.157662 l 0.0842,-1.32605 0.16838,-1.17872 -0.16838,-0.63145 -0.0842,-1.01032 0.12629,-1.28396 0.31573,-1.03137 v -0.82089 l 0.29468,-1.51549 v -0.82089 l -0.16839,-0.63145 0.0421,-0.56831 -0.35783,-0.42097 -0.16838,-0.56831 -0.0842,-0.48411 0.12629,-0.82089 0.39992,-0.37887 0.94718,-0.33678 0.90508,-0.44201 0.98928,-0.29468 0.94718,-0.0421 h 0.6525 l 1.62073,0.33678 0.7367,0.0842 0.56831,0.31573 0.12629,0.29468 0.6525,0.12629 0.63145,0.5683 0.56831,0.46307 0.44202,0.90508 0.37887,0.6946 0.25258,0.82089 0.31573,0.6104 0.29467,0.86299 0.37888,1.03137 0.14733,0.82089 0.0842,0.98928 0.21048,0.82089 z m -15.95471,-1.3892 -0.42097,0.29468 -0.52621,-0.16839 0.44201,-0.33677 z"
         style="fill:#000000;stroke:#000000"
         id="path4474" />
    </g>
    <g
       id="g5136"
       transform="matrix(0.84018338,0,0,0.84018338,-1734.8705,-650.0207)">
      <g
         id="g5114"
         transform="matrix(0.77534952,0,0,0.77534952,1173.8138,498.71575)"
         style="fill:#ffffff;stroke:#ffffff;stroke-width:10;stroke-dasharray:none">
        <path
           sodipodi:nodetypes="cccccccccccccccccccccccccccccccccccccccccc"
           inkscape:connector-curvature="0"
           id="path5096"
           d="m 268.58717,231.657 -0.4459,0.76446 c 1.48941,2.71049 3.97974,0.0156 6.27489,-1.6245 0.48485,-4.85208 0.99854,-9.44481 1.36964,-15.32092 2.24627,0.0909 4.4471,0.1364 6.27489,-0.19113 l 0.82817,0.50964 c 0.60519,-0.0426 1.21038,0.10334 1.81558,-0.28666 0.80686,-0.97987 1.80698,-1.90449 2.22968,-2.99411 l -0.85424,-0.89412 -1.43021,-0.0225 -0.0338,-1.72302 -0.63067,-0.43917 -0.45044,0.0339 -0.0788,0.37164 c -2.16533,0.24387 -4.56656,-0.54433 -6.29516,1.61038 l -1.11487,-0.0789 -0.045,-3.61207 0.82021,-0.82021 h 5.70156 l 0.53352,-0.53351 v -0.9317 c 2.93582,-3.24847 4.42122,-7.07711 6.22334,-10.77911 2.61255,0.0268 2.79719,-2.07068 3.61458,-3.61459 l -3.98506,-4.54248 -5.1919,0.0637 c 2.85075,-3.65979 6.24153,-7.03782 11.03679,-9.68309 5.78128,-0.92794 4.64839,-2.98389 4.64839,-4.48916 0,-1.81112 -2.35246,-2.26672 -3.04061,-1.86942 l -3.67126,3.01808 -2.20721,-0.20269 c -5.30169,1.39893 -5.98112,5.85184 -8.96395,8.78291 l -2.64373,4.77783 c -1.52593,-0.39578 -2.37051,0.11251 -3.02595,0.38222 l -10.92995,5.67453 -1.68359,11.01606 c -0.27897,2.09661 0.64215,3.28078 6.08382,3.28078 l 2.10225,0.0637 -0.38223,3.69488 c -3.4055,-0.10316 -6.84165,-0.60439 -10.19275,0 -3.17011,0.51598 -2.87109,3.53425 -1.08297,4.01338 3.18581,0.70163 5.79745,0.54194 8.66384,0.76445 3.40427,0.0897 0.10611,10.5536 0.15908,15.83039 z"
           style="display:inline;fill:#ffffff;stroke:#ffffff;stroke-width:10;stroke-linecap:round;stroke-linejoin:round;stroke-dasharray:none;stroke-opacity:1" />
        <path
           sodipodi:nodetypes="cccc"
           inkscape:connector-curvature="0"
           id="path5098"
           d="m 276.02337,202.2726 c 0.52812,-1.68537 0.8571,-3.45654 5.5857,-3.33338 l -0.81084,3.17573 z"
           style="display:inline;fill:#ffffff;stroke:#ffffff;stroke-width:10;stroke-linecap:round;stroke-linejoin:round;stroke-dasharray:none;stroke-opacity:1" />
        <path
           sodipodi:nodetypes="cccccc"
           inkscape:connector-curvature="0"
           id="path5100"
           d="m 268.68087,199.2095 v 3.24329 h 3.85143 v -1.50903 c 0.65701,-0.77382 1.06382,-1.51313 0,-2.04958 z"
           style="display:inline;fill:#ffffff;stroke:#ffffff;stroke-width:10;stroke-linecap:round;stroke-linejoin:round;stroke-dasharray:none;stroke-opacity:1" />
        <path
           sodipodi:nodetypes="ccccc"
           inkscape:connector-curvature="0"
           id="path5102"
           d="m 270.8059,194.45191 0.99836,-3.13585 c 1.33231,-2.8e-4 2.48555,-0.29902 3.99747,0 -0.007,1.2042 -0.34723,2.19851 -0.8316,3.10353 z"
           style="display:inline;fill:#ffffff;stroke:#ffffff;stroke-width:10;stroke-linecap:round;stroke-linejoin:round;stroke-dasharray:none;stroke-opacity:1" />
        <path
           sodipodi:nodetypes="ccccc"
           inkscape:connector-curvature="0"
           id="path5104"
           d="m 278.73215,194.2465 1.06702,-2.88265 5.0327,-0.0796 -1.49182,2.87336 z"
           style="display:inline;fill:#ffffff;stroke:#ffffff;stroke-width:10;stroke-linecap:round;stroke-linejoin:round;stroke-dasharray:none;stroke-opacity:1" />
        <path
           sodipodi:nodetypes="ccssccsccccccccccccccc"
           inkscape:connector-curvature="0"
           id="path5106"
           d="m 254.24365,212.92599 c 1.29357,-7.76712 -0.001,-16.81739 10.67603,-19.93266 l 10.92994,-5.67455 c 1.2603,-0.65431 -0.53521,-3.09858 -2.64163,-2.14111 l -15.85615,7.20737 1.89191,-4.27937 c 2.26628,-0.89397 6.33069,-1.85234 2.44569,-3.62801 -4.56996,-2.08867 -4.31755,-1.86834 -8.27912,0.51982 -3.23602,0.43962 -8.53308,1.23264 -11.39664,6.14877 -1.77663,1.02574 -1.04061,2.65015 -0.58558,2.38746 3.8754,-1.96307 6.00986,-4.24006 12.18493,-5.78841 1.70251,-0.45619 1.77978,1.48604 1.19371,2.0721 l -2.63521,1.89194 c -2.95732,-0.19284 -3.01314,2.00373 -4.12171,3.33339 -3.1264,1.75584 -3.96446,3.51848 -5.31541,5.15777 -1.60651,1.60651 0.139,4.7177 2.02708,4.21178 2.01662,-0.65754 3.75186,-1.82063 5.51814,-2.92798 0.0736,3.58202 -0.42329,6.82171 -0.74011,10.16945 l -0.66894,0.63704 c -0.0156,1.26882 -0.1724,2.53756 0.33447,3.80638 1.00603,0.69221 2.04134,0.65252 3.08969,0.28665 1.47342,-0.84806 1.63164,-2.03122 1.94891,-3.45783 z"
           style="display:inline;fill:#ffffff;stroke:#ffffff;stroke-width:10;stroke-linecap:round;stroke-linejoin:round;stroke-dasharray:none;stroke-opacity:1" />
        <path
           sodipodi:nodetypes="ccssc"
           inkscape:connector-curvature="0"
           id="path5108"
           d="m 253.96699,174.13177 c -5.89218,-0.93504 0.27718,4.5539 1.27408,5.63785 2.81182,-0.33984 3.85493,-1.5516 4.84151,-2.70746 1.54373,-1.80856 4.84376,-6.38223 -1.87925,-5.4786 -1.6317,0.21931 -3.01268,1.3847 -4.23634,2.54821 z"
           style="display:inline;fill:#ffffff;stroke:#ffffff;stroke-width:10;stroke-linecap:round;stroke-linejoin:round;stroke-dasharray:none;stroke-opacity:1" />
        <path
           sodipodi:nodetypes="cccccccc"
           inkscape:connector-curvature="0"
           id="path5110"
           d="m 268.74644,173.3036 1.33778,1.30595 1.0193,-0.0954 c 1.43951,1.40319 2.59092,2.23022 3.69485,2.96226 l -0.0956,4.90524 c -1.73299,0.0318 -3.30587,-0.65695 -4.36379,-3.66301 -1.35801,-1.4289 -2.2328,-2.76117 -3.18524,-4.10894 z"
           style="display:inline;fill:#ffffff;stroke:#ffffff;stroke-width:10;stroke-linecap:round;stroke-linejoin:round;stroke-dasharray:none;stroke-opacity:1" />
        <path
           sodipodi:nodetypes="cccccc"
           inkscape:connector-curvature="0"
           id="path5112"
           d="m 280.89808,173.76545 c 3.92929,-0.76444 3.11367,0.82327 2.18191,2.46854 0.21436,0.63929 -0.0841,0.95235 -0.31852,1.30598 -2.06776,-0.31161 -4.54493,-0.05 -4.3797,-3.48782 l 1.49706,-0.97151 z"
           style="display:inline;fill:#ffffff;stroke:#ffffff;stroke-width:10;stroke-linecap:round;stroke-linejoin:round;stroke-dasharray:none;stroke-opacity:1" />
      </g>
      <g
         id="g5134"
         transform="matrix(0.77534952,0,0,0.77534952,1173.8138,498.71575)">
        <path
           sodipodi:nodetypes="cccccccccccccccccccccccccccccccccccccccccc"
           inkscape:connector-curvature="0"
           id="path5116"
           d="m 268.58717,231.657 -0.4459,0.76446 c 1.48941,2.71049 3.97974,0.0156 6.27489,-1.6245 0.48485,-4.85208 0.99854,-9.44481 1.36964,-15.32092 2.24627,0.0909 4.4471,0.1364 6.27489,-0.19113 l 0.82817,0.50964 c 0.60519,-0.0426 1.21038,0.10334 1.81558,-0.28666 0.80686,-0.97987 1.80698,-1.90449 2.22968,-2.99411 l -0.85424,-0.89412 -1.43021,-0.0225 -0.0338,-1.72302 -0.63067,-0.43917 -0.45044,0.0339 -0.0788,0.37164 c -2.16533,0.24387 -4.56656,-0.54433 -6.29516,1.61038 l -1.11487,-0.0789 -0.045,-3.61207 0.82021,-0.82021 h 5.70156 l 0.53352,-0.53351 v -0.9317 c 2.93582,-3.24847 4.42122,-7.07711 6.22334,-10.77911 2.61255,0.0268 2.79719,-2.07068 3.61458,-3.61459 l -3.98506,-4.54248 -5.1919,0.0637 c 2.85075,-3.65979 6.24153,-7.03782 11.03679,-9.68309 5.78128,-0.92794 4.64839,-2.98389 4.64839,-4.48916 0,-1.81112 -2.35246,-2.26672 -3.04061,-1.86942 l -3.67126,3.01808 -2.20721,-0.20269 c -5.30169,1.39893 -5.98112,5.85184 -8.96395,8.78291 l -2.64373,4.77783 c -1.52593,-0.39578 -2.37051,0.11251 -3.02595,0.38222 l -10.92995,5.67453 -1.68359,11.01606 c -0.27897,2.09661 0.64215,3.28078 6.08382,3.28078 l 2.10225,0.0637 -0.38223,3.69488 c -3.4055,-0.10316 -6.84165,-0.60439 -10.19275,0 -3.17011,0.51598 -2.87109,3.53425 -1.08297,4.01338 3.18581,0.70163 5.79745,0.54194 8.66384,0.76445 3.40427,0.0897 0.10611,10.5536 0.15908,15.83039 z"
           style="display:inline;fill:#000000;stroke:#000000;stroke-width:0.391255px;stroke-linecap:round;stroke-linejoin:round;stroke-opacity:1" />
        <path
           sodipodi:nodetypes="cccc"
           inkscape:connector-curvature="0"
           id="path5118"
           d="m 276.02337,202.2726 c 0.52812,-1.68537 0.8571,-3.45654 5.5857,-3.33338 l -0.81084,3.17573 z"
           style="display:inline;fill:#ffffff;stroke:#ffffff;stroke-width:0.391255px;stroke-linecap:round;stroke-linejoin:round;stroke-opacity:1" />
        <path
           sodipodi:nodetypes="cccccc"
           inkscape:connector-curvature="0"
           id="path5120"
           d="m 268.68087,199.2095 v 3.24329 h 3.85143 v -1.50903 c 0.65701,-0.77382 1.06382,-1.51313 0,-2.04958 z"
           style="display:inline;fill:#ffffff;stroke:#ffffff;stroke-width:0.391255px;stroke-linecap:round;stroke-linejoin:round;stroke-opacity:1" />
        <path
           sodipodi:nodetypes="ccccc"
           inkscape:connector-curvature="0"
           id="path5122"
           d="m 270.8059,194.45191 0.99836,-3.13585 c 1.33231,-2.8e-4 2.48555,-0.29902 3.99747,0 -0.007,1.2042 -0.34723,2.19851 -0.8316,3.10353 z"
           style="display:inline;fill:#ffffff;stroke:#ffffff;stroke-width:0.391255px;stroke-linecap:round;stroke-linejoin:round;stroke-opacity:1" />
        <path
           sodipodi:nodetypes="ccccc"
           inkscape:connector-curvature="0"
           id="path5124"
           d="m 278.73215,194.2465 1.06702,-2.88265 5.0327,-0.0796 -1.49182,2.87336 z"
           style="display:inline;fill:#ffffff;stroke:#ffffff;stroke-width:0.391255px;stroke-linecap:round;stroke-linejoin:round;stroke-opacity:1" />
        <path
           sodipodi:nodetypes="ccssccsccccccccccccccc"
           inkscape:connector-curvature="0"
           id="path5126"
           d="m 254.24365,212.92599 c 1.29357,-7.76712 -0.001,-16.81739 10.67603,-19.93266 l 10.92994,-5.67455 c 1.2603,-0.65431 -0.53521,-3.09858 -2.64163,-2.14111 l -15.85615,7.20737 1.89191,-4.27937 c 2.26628,-0.89397 6.33069,-1.85234 2.44569,-3.62801 -4.56996,-2.08867 -4.31755,-1.86834 -8.27912,0.51982 -3.23602,0.43962 -8.53308,1.23264 -11.39664,6.14877 -1.77663,1.02574 -1.04061,2.65015 -0.58558,2.38746 3.8754,-1.96307 6.00986,-4.24006 12.18493,-5.78841 1.70251,-0.45619 1.77978,1.48604 1.19371,2.0721 l -2.63521,1.89194 c -2.95732,-0.19284 -3.01314,2.00373 -4.12171,3.33339 -3.1264,1.75584 -3.96446,3.51848 -5.31541,5.15777 -1.60651,1.60651 0.139,4.7177 2.02708,4.21178 2.01662,-0.65754 3.75186,-1.82063 5.51814,-2.92798 0.0736,3.58202 -0.42329,6.82171 -0.74011,10.16945 l -0.66894,0.63704 c -0.0156,1.26882 -0.1724,2.53756 0.33447,3.80638 1.00603,0.69221 2.04134,0.65252 3.08969,0.28665 1.47342,-0.84806 1.63164,-2.03122 1.94891,-3.45783 z"
           style="display:inline;fill:#800000;stroke:#800000;stroke-width:0.391255px;stroke-linecap:round;stroke-linejoin:round;stroke-opacity:1" />
        <path
           sodipodi:nodetypes="ccssc"
           inkscape:connector-curvature="0"
           id="path5128"
           d="m 253.96699,174.13177 c -5.89218,-0.93504 0.27718,4.5539 1.27408,5.63785 2.81182,-0.33984 3.85493,-1.5516 4.84151,-2.70746 1.54373,-1.80856 4.84376,-6.38223 -1.87925,-5.4786 -1.6317,0.21931 -3.01268,1.3847 -4.23634,2.54821 z"
           style="display:inline;fill:#800000;stroke:#800000;stroke-width:0.391255px;stroke-linecap:round;stroke-linejoin:round;stroke-opacity:1" />
        <path
           sodipodi:nodetypes="cccccccc"
           inkscape:connector-curvature="0"
           id="path5130"
           d="m 268.74644,173.3036 1.33778,1.30595 1.0193,-0.0954 c 1.43951,1.40319 2.59092,2.23022 3.69485,2.96226 l -0.0956,4.90524 c -1.73299,0.0318 -3.30587,-0.65695 -4.36379,-3.66301 -1.35801,-1.4289 -2.2328,-2.76117 -3.18524,-4.10894 z"
           style="display:inline;fill:#800000;stroke:#800000;stroke-width:0.391255px;stroke-linecap:round;stroke-linejoin:round;stroke-opacity:1" />
        <path
           sodipodi:nodetypes="cccccc"
           inkscape:connector-curvature="0"
           id="path5132"
           d="m 280.89808,173.76545 c 3.92929,-0.76444 3.11367,0.82327 2.18191,2.46854 0.21436,0.63929 -0.0841,0.95235 -0.31852,1.30598 -2.06776,-0.31161 -4.54493,-0.05 -4.3797,-3.48782 l 1.49706,-0.97151 z"
           style="display:inline;fill:#800000;stroke:#800000;stroke-width:0.391255px;stroke-linecap:round;stroke-linejoin:round;stroke-opacity:1" />
      </g>
    </g>
  </g>
</svg>
